<?xml version="1.0" encoding="UTF-8" standalone="no"?>
<!-- Created with Inkscape (http://www.inkscape.org/) -->

<svg
   width="512"
   height="512"
   viewBox="0 0 512 512"
   version="1.1"
   id="svg1"
   inkscape:version="1.3.2 (091e20e, 2023-11-25, custom)"
   sodipodi:docname="vodoun-mask-text.svg"
   xmlns:inkscape="http://www.inkscape.org/namespaces/inkscape"
   xmlns:sodipodi="http://sodipodi.sourceforge.net/DTD/sodipodi-0.dtd"
   xmlns="http://www.w3.org/2000/svg"
   xmlns:svg="http://www.w3.org/2000/svg">
  <sodipodi:namedview
     id="namedview1"
     pagecolor="#ffffff"
     bordercolor="#000000"
     borderopacity="0.25"
     inkscape:showpageshadow="2"
     inkscape:pageopacity="0.0"
     inkscape:pagecheckerboard="0"
     inkscape:deskcolor="#d1d1d1"
     inkscape:document-units="px"
     inkscape:zoom="0.921875"
     inkscape:cx="257.08475"
     inkscape:cy="254.91525"
     inkscape:window-width="1350"
     inkscape:window-height="720"
     inkscape:window-x="0"
     inkscape:window-y="0"
     inkscape:window-maximized="0"
     inkscape:current-layer="layer1" />
  <defs
     id="defs1">
    <rect
       x="31.457627"
       y="395.9322"
       width="446.91525"
       height="41.220339"
       id="rect1" />
    <inkscape:path-effect
       effect="bspline"
       id="path-effect33"
       is_visible="true"
       lpeversion="1.3"
       weight="33.333333"
       steps="2"
       helper_size="0"
       apply_no_weight="true"
       apply_with_weight="true"
       only_selected="false"
       uniform="false" />
    <inkscape:path-effect
       effect="bspline"
       id="path-effect32"
       is_visible="true"
       lpeversion="1.3"
       weight="33.333333"
       steps="2"
       helper_size="0"
       apply_no_weight="true"
       apply_with_weight="true"
       only_selected="false"
       uniform="false" />
    <inkscape:path-effect
       effect="bspline"
       id="path-effect31"
       is_visible="true"
       lpeversion="1.3"
       weight="33.333333"
       steps="2"
       helper_size="0"
       apply_no_weight="true"
       apply_with_weight="true"
       only_selected="false"
       uniform="false" />
    <inkscape:path-effect
       effect="bspline"
       id="path-effect30"
       is_visible="true"
       lpeversion="1.3"
       weight="33.333333"
       steps="2"
       helper_size="0"
       apply_no_weight="true"
       apply_with_weight="true"
       only_selected="false"
       uniform="false" />
    <inkscape:path-effect
       effect="bspline"
       id="path-effect29"
       is_visible="true"
       lpeversion="1.3"
       weight="33.333333"
       steps="2"
       helper_size="0"
       apply_no_weight="true"
       apply_with_weight="true"
       only_selected="false"
       uniform="false" />
    <inkscape:path-effect
       effect="bspline"
       id="path-effect28"
       is_visible="true"
       lpeversion="1.3"
       weight="33.333333"
       steps="2"
       helper_size="0"
       apply_no_weight="true"
       apply_with_weight="true"
       only_selected="false"
       uniform="false" />
    <inkscape:path-effect
       effect="bspline"
       id="path-effect27"
       is_visible="true"
       lpeversion="1.3"
       weight="33.333333"
       steps="2"
       helper_size="0"
       apply_no_weight="true"
       apply_with_weight="true"
       only_selected="false"
       uniform="false" />
    <inkscape:path-effect
       effect="bspline"
       id="path-effect26"
       is_visible="true"
       lpeversion="1.3"
       weight="33.333333"
       steps="2"
       helper_size="0"
       apply_no_weight="true"
       apply_with_weight="true"
       only_selected="false"
       uniform="false" />
    <inkscape:path-effect
       effect="bspline"
       id="path-effect25"
       is_visible="true"
       lpeversion="1.3"
       weight="33.333333"
       steps="2"
       helper_size="0"
       apply_no_weight="true"
       apply_with_weight="true"
       only_selected="false"
       uniform="false" />
    <inkscape:path-effect
       effect="bspline"
       id="path-effect23"
       is_visible="true"
       lpeversion="1.3"
       weight="33.333333"
       steps="2"
       helper_size="0"
       apply_no_weight="true"
       apply_with_weight="true"
       only_selected="false"
       uniform="false" />
    <inkscape:path-effect
       effect="bspline"
       id="path-effect22"
       is_visible="true"
       lpeversion="1.3"
       weight="33.333333"
       steps="2"
       helper_size="0"
       apply_no_weight="true"
       apply_with_weight="true"
       only_selected="false"
       uniform="false" />
    <inkscape:path-effect
       effect="bspline"
       id="path-effect21"
       is_visible="true"
       lpeversion="1.3"
       weight="33.333333"
       steps="2"
       helper_size="0"
       apply_no_weight="true"
       apply_with_weight="true"
       only_selected="false"
       uniform="false" />
    <inkscape:path-effect
       effect="bspline"
       id="path-effect20"
       is_visible="true"
       lpeversion="1.3"
       weight="33.333333"
       steps="2"
       helper_size="0"
       apply_no_weight="true"
       apply_with_weight="true"
       only_selected="false"
       uniform="false" />
    <inkscape:path-effect
       effect="bspline"
       id="path-effect19"
       is_visible="true"
       lpeversion="1.3"
       weight="33.333333"
       steps="2"
       helper_size="0"
       apply_no_weight="true"
       apply_with_weight="true"
       only_selected="false"
       uniform="false" />
    <inkscape:path-effect
       effect="bspline"
       id="path-effect18"
       is_visible="true"
       lpeversion="1.3"
       weight="33.333333"
       steps="2"
       helper_size="0"
       apply_no_weight="true"
       apply_with_weight="true"
       only_selected="false"
       uniform="false" />
    <inkscape:path-effect
       effect="bspline"
       id="path-effect17"
       is_visible="true"
       lpeversion="1.3"
       weight="33.333333"
       steps="2"
       helper_size="0"
       apply_no_weight="true"
       apply_with_weight="true"
       only_selected="false"
       uniform="false" />
    <inkscape:path-effect
       effect="bspline"
       id="path-effect16"
       is_visible="true"
       lpeversion="1.3"
       weight="33.333333"
       steps="2"
       helper_size="0"
       apply_no_weight="true"
       apply_with_weight="true"
       only_selected="false"
       uniform="false" />
    <inkscape:path-effect
       effect="bspline"
       id="path-effect15"
       is_visible="true"
       lpeversion="1.3"
       weight="33.333333"
       steps="2"
       helper_size="0"
       apply_no_weight="true"
       apply_with_weight="true"
       only_selected="false"
       uniform="false" />
  </defs>
  <g
     inkscape:label="Calque 1"
     inkscape:groupmode="layer"
     id="layer1">
    <g
       id="g1"
       transform="matrix(1.3781499,0,0,1.3457818,-120.29462,-205.71159)"
       style="fill:#dcdcdc">
      <path
         d="m 272.35894,234.66437 c -2.37442,0 -5.56847,0.0444 -8.38672,0.24414 -2.81825,0.19972 -5.26013,0.55352 -7.45703,1.01953 -2.1969,0.46601 -4.14864,1.04363 -6.41211,1.82031 -2.26347,0.77668 -4.83759,1.75374 -7.30078,2.86328 -2.46319,1.10955 -4.81549,2.35082 -7.78906,4.21485 -2.97358,1.86403 -6.56941,4.3504 -8.5,5.85937 -1.9306,1.50897 -2.19623,2.04168 -2.35157,2.81836 -0.15533,0.77668 -0.19959,1.79779 -0.31054,2.9961 -0.11096,1.19831 -0.28944,2.5738 -0.40039,4.30468 -0.11096,1.73089 -0.15501,3.8166 -0.13282,5.03711 0.0222,1.22051 0.11033,1.57567 0.50977,1.77539 0.39944,0.19973 1.11029,0.24327 2.30859,0.33204 1.19831,0.0888 2.88372,0.22215 5.125,0.42187 2.24128,0.19972 5.03859,0.46651 7.56836,0.84375 2.52977,0.37725 4.79205,0.86532 6.72266,1.35352 1.93061,0.4882 3.52812,0.97539 5.03711,1.4414 1.50898,0.46601 2.93026,0.91078 4.26172,1.44336 1.33145,0.53258 2.57301,1.15285 3.83789,1.9961 1.26488,0.84325 2.55343,1.90836 3.57422,2.88476 1.02078,0.9764 1.77513,1.86415 2.39648,2.81836 0.62135,0.95421 1.10925,1.97548 1.41992,2.92969 0.31068,0.95421 0.44319,1.84255 0.50977,3.10742 0.0666,1.26487 0.0664,2.90676 0.0664,3.75 0,0.84324 0.001,0.88688 0.0234,1.86328 0.0222,0.9764 0.0653,2.88575 -0.26758,4.57227 -0.33286,1.68651 -1.04197,3.15055 -1.4414,4.12695 -0.39944,0.9764 -0.48816,1.46355 0.24414,2.24023 0.73229,0.77668 2.28465,1.84338 3.52734,2.77539 1.24269,0.93202 2.17445,1.73088 2.70703,2.08594 0.53259,0.35506 0.66589,0.26476 2.01953,-0.68945 1.35365,-0.95421 3.92918,-2.77272 5.17188,-3.83789 1.2427,-1.06517 1.15263,-1.37533 0.77539,-2.28516 -0.37724,-0.90982 -1.04197,-2.42012 -1.44141,-3.64062 -0.39943,-1.22051 -0.53233,-2.15197 -0.62109,-3.08399 -0.0888,-0.93201 -0.13406,-1.86398 -0.15625,-2.88476 -0.0222,-1.02079 -0.0215,-2.13031 -0.0215,-3.12891 0,-0.99859 -0.001,-1.88514 0.28711,-3.03906 0.28848,-1.15393 0.86661,-2.57409 1.6211,-3.92774 0.75449,-1.35364 1.68559,-2.64207 2.97265,-3.88476 1.28707,-1.24269 2.92944,-2.44103 4.59375,-3.37305 1.66432,-0.93202 3.3504,-1.59761 5.90235,-2.39648 2.55195,-0.79887 5.97056,-1.73076 9.41015,-2.39649 3.4396,-0.66573 6.90154,-1.0652 9.56446,-1.28711 2.66291,-0.22191 4.52612,-0.26508 5.79101,-0.2207 1.26489,0.0444 1.92994,0.17736 2.35157,0.0664 0.42163,-0.11095 0.59944,-0.46602 0.66601,-3.12891 0.0666,-2.66289 0.0227,-7.63519 -0.19922,-10.32031 -0.2219,-2.68512 -0.62155,-3.08266 -1.2207,-3.61524 -0.59915,-0.53258 -1.39744,-1.19921 -2.83984,-2.24218 -1.44241,-1.04297 -3.52904,-2.46397 -5.19336,-3.59571 -1.66433,-1.13174 -2.90696,-1.97515 -4.97071,-3.0625 -2.06374,-1.08735 -4.94875,-2.41866 -7.47851,-3.43945 -2.52977,-1.02079 -4.70403,-1.72968 -6.94532,-2.30664 -2.24128,-0.57697 -4.54832,-1.02065 -6.83398,-1.35352 -2.28566,-0.33286 -4.55056,-0.55435 -6.45898,-0.6875 -1.90843,-0.13314 -3.46152,-0.17773 -5.83594,-0.17773 z m 16.10351,12.20312 c 0.12205,0.0229 0.25647,0.0779 0.40625,0.17774 0.59915,0.39943 1.44257,1.51009 2.01954,2.41992 0.57696,0.90983 0.88817,1.62013 1.08789,2.26367 0.19972,0.64354 0.28889,1.21958 0.35546,1.92969 0.0666,0.71011 0.11096,1.55323 0,2.39648 -0.11095,0.84326 -0.37827,1.68608 -0.88867,2.77344 -0.51039,1.08736 -1.26359,2.42005 -1.81836,3.15235 -0.55477,0.73229 -0.91023,0.86536 -1.39843,0.55468 -0.48821,-0.31067 -1.11071,-1.0644 -1.6211,-1.86328 -0.51039,-0.79887 -0.90932,-1.64324 -1.24219,-2.41992 -0.33286,-0.77668 -0.59927,-1.48682 -0.73242,-2.33008 -0.13314,-0.84326 -0.13298,-1.81885 -0.0664,-2.66211 0.0666,-0.84325 0.19926,-1.55302 0.44336,-2.21875 0.2441,-0.66572 0.60073,-1.28844 0.93359,-1.79883 0.33286,-0.51039 0.64191,-0.91003 0.9082,-1.2207 0.26629,-0.31067 0.48886,-0.53253 0.77735,-0.79883 0.21636,-0.19972 0.46979,-0.42412 0.83593,-0.35547 z m -32.71093,0.61329 c 0.68474,0.0658 1.25274,0.72665 1.71875,1.40625 0.53258,0.77667 0.9308,1.57686 1.26367,2.59765 0.33286,1.02079 0.59944,2.26313 0.66601,3.26172 0.0666,0.99859 -0.0666,1.75295 -0.24414,2.39648 -0.17752,0.64354 -0.40009,1.17699 -0.77734,1.99805 -0.37725,0.82107 -0.90828,1.92911 -1.39648,2.6836 -0.4882,0.75448 -0.93247,1.15422 -1.64258,0.66601 -0.71011,-0.48821 -1.68709,-1.86419 -2.375,-3.0625 -0.68792,-1.1983 -1.0874,-2.21874 -1.28711,-3.26172 -0.19972,-1.04297 -0.19972,-2.10796 0,-3.19531 0.19972,-1.08735 0.59919,-2.19656 1.28711,-3.26172 0.68792,-1.06516 1.66527,-2.0856 2.48633,-2.21875 0.10263,-0.0166 0.20296,-0.0192 0.30078,-0.01 z m 16.11132,7.5996 c 0.0978,0.0208 0.20186,0.0662 0.31836,0.13282 0.46601,0.26628 1.13273,0.88759 1.6875,1.84179 0.55477,0.95421 0.99793,2.24044 1.3086,3.46094 0.31067,1.2205 0.48899,2.37517 0.46679,3.35156 -0.0222,0.9764 -0.24492,1.77361 -0.71093,2.75 -0.46601,0.9764 -1.17587,2.13028 -1.66407,2.88477 -0.48819,0.75449 -0.75344,1.10971 -1.19726,0.97656 -0.44382,-0.13315 -1.06686,-0.75386 -1.66602,-1.55273 -0.59915,-0.79888 -1.17603,-1.77518 -1.59765,-2.64063 -0.42163,-0.86544 -0.68717,-1.61997 -0.82032,-2.33008 -0.13314,-0.7101 -0.13351,-1.37528 -0.11132,-2.04101 0.0222,-0.66573 0.0672,-1.33108 0.28906,-1.97461 0.22191,-0.64353 0.62171,-1.26558 1.1543,-2.06445 0.53258,-0.79888 1.19805,-1.77602 1.66406,-2.3086 0.34951,-0.39943 0.58558,-0.54874 0.8789,-0.48633 z"
         style="fill:#dcdcdc;fill-opacity:1;stroke-width:1.934;stroke-linecap:round;stroke-dashoffset:2.2;paint-order:stroke fill markers"
         id="path5" />
      <path
         d="m 223.19878,274.69562 c -0.0527,0 -0.15823,-5.9e-4 -0.21094,0.041 -0.0527,0.0416 -0.0527,0.12641 -0.0527,0.22071 v 0.3457 c 0,0.14701 -5e-4,0.33675 0.008,0.66406 0.008,0.32732 0.0247,0.79239 0.0996,2.06836 0.0749,1.27597 0.20795,3.36261 0.36328,5.71485 0.15534,2.35223 0.33353,4.96945 0.77735,8.07617 0.44381,3.10672 1.15313,6.70294 1.61914,8.85547 0.46601,2.15253 0.68949,2.86253 0.93359,3.68359 0.2441,0.82107 0.51072,1.75233 0.91016,2.90625 0.39943,1.15393 0.93027,2.53028 1.21875,3.17383 0.28848,0.64355 0.33373,0.55391 0.95508,0.0879 0.62135,-0.46602 1.81873,-1.30855 2.97265,-2.10742 1.15393,-0.79887 2.26367,-1.55394 3.30664,-2.375 1.04297,-0.82106 2.01986,-1.7084 2.92969,-2.46289 0.90983,-0.7545 1.75241,-1.37525 2.35156,-1.79688 0.59916,-0.42163 0.95549,-0.6449 1.31055,-0.75586 0.35506,-0.11095 0.70923,-0.11095 1.13086,0 0.42163,0.11096 0.91024,0.33299 1.39844,0.73242 0.4882,0.39944 0.97606,0.97632 1.17578,1.59766 0.19972,0.62135 0.11112,1.28702 -0.0664,1.8418 -0.17753,0.55477 -0.44452,0.99921 -1.02148,1.57617 -0.57697,0.57696 -1.46397,1.28798 -2.59571,2.24219 -1.13173,0.9542 -2.50697,2.15217 -3.88281,3.26172 -1.37583,1.10954 -2.75303,2.12973 -3.88476,2.83984 -1.13174,0.71011 -2.01749,1.10871 -2.57227,1.375 -0.55478,0.26629 -0.77854,0.40068 -0.55664,1.06641 0.2219,0.66572 0.88858,1.86406 1.44336,2.33007 0.55478,0.46602 0.99871,0.19968 1.77539,-0.24414 0.77668,-0.44381 1.88601,-1.06528 2.95117,-1.77539 1.06517,-0.71011 2.0866,-1.50934 2.86328,-2.19726 0.77669,-0.68792 1.30922,-1.26554 1.8418,-1.82032 0.53258,-0.55477 1.0642,-1.08618 1.68555,-1.50781 0.62134,-0.42162 1.33215,-0.73333 2.06445,-0.88867 0.7323,-0.15534 1.48695,-0.15463 2.01953,-0.0215 0.53258,0.13314 0.84238,0.39956 1.13086,0.73242 0.28848,0.33286 0.55436,0.73196 0.6875,1.17578 0.13315,0.44382 0.13314,0.93226 0,1.46484 -0.13314,0.53259 -0.39835,1.1095 -0.95312,1.8418 -0.55477,0.7323 -1.39773,1.62055 -2.4629,2.61914 -1.06516,0.99859 -2.35284,2.10812 -3.6621,3.12891 -1.30927,1.02078 -2.63971,1.95287 -3.52735,2.57422 -0.88764,0.62134 -1.33153,0.93027 -1.53125,1.21875 -0.19972,0.28848 -0.15525,0.55518 0.48828,1.39843 0.64353,0.84325 1.88589,2.26321 3.26172,3.75 1.37584,1.48679 2.88435,3.04056 4.61524,4.52735 1.73089,1.48679 3.68325,2.9072 5.90234,4.34961 2.21909,1.4424 4.70374,2.90682 7.32227,4.23828 2.61852,1.33145 5.37195,2.52925 7.36914,3.32812 1.99718,0.79888 3.23948,1.19872 4.06054,1.39844 0.82107,0.19972 1.22059,0.20038 2.57422,-0.26563 1.35364,-0.466 3.66002,-1.39897 6.05664,-2.48632 2.39662,-1.08736 4.8828,-2.32991 6.96875,-3.43946 2.08595,-1.10954 3.77302,-2.0856 5.50391,-3.26172 1.73089,-1.17611 3.5049,-2.5526 5.1914,-3.90625 1.68651,-1.35364 3.28482,-2.68483 4.46094,-3.75 1.17613,-1.06516 1.93052,-1.86252 2.64063,-2.68359 0.71011,-0.82106 1.37628,-1.66468 1.64258,-2.19726 0.26629,-0.53259 0.13256,-0.75557 -0.28907,-1.13282 -0.42162,-0.37724 -1.13185,-0.90828 -1.77539,-1.39648 -0.64353,-0.4882 -1.22082,-0.93351 -1.95312,-1.48828 -0.7323,-0.55478 -1.62018,-1.21958 -2.50782,-1.92969 -0.88763,-0.71011 -1.77463,-1.46567 -2.5957,-2.17578 -0.82106,-0.71011 -1.57484,-1.37529 -2.10742,-2.04102 -0.53258,-0.66573 -0.8445,-1.33178 -1.06641,-1.95312 -0.22191,-0.62135 -0.35525,-1.19718 -0.17773,-1.75196 0.17752,-0.55477 0.66717,-1.08759 1.24414,-1.46484 0.57697,-0.37725 1.24227,-0.60015 1.73047,-0.64453 0.4882,-0.0444 0.79961,0.0885 1.26562,0.37695 0.46601,0.28848 1.08698,0.73309 1.97461,1.50977 0.88764,0.77668 2.04155,1.88688 3.12891,2.86328 1.08736,0.9764 2.10671,1.81902 3.17187,2.5957 1.06517,0.77669 2.17623,1.48782 2.77539,1.93164 0.59917,0.44383 0.68667,0.62034 1.01954,0.39844 0.33286,-0.2219 0.91023,-0.84366 1.39843,-1.39844 0.48821,-0.55477 0.88709,-1.04213 0.99805,-1.375 0.11096,-0.33286 -0.0654,-0.51035 -0.46484,-0.79882 -0.39943,-0.28848 -1.0209,-0.68883 -1.77539,-1.19922 -0.7545,-0.51039 -1.6422,-1.13044 -2.57422,-1.81836 -0.93202,-0.68792 -1.90857,-1.44228 -3.0625,-2.39649 -1.15393,-0.95421 -2.48578,-2.10899 -3.48438,-3.04101 -0.99859,-0.93202 -1.66414,-1.64216 -2.15234,-2.33008 -0.4882,-0.68792 -0.79779,-1.35397 -0.95313,-1.95313 -0.15533,-0.59915 -0.15637,-1.13077 0.1543,-1.68554 0.31067,-0.55478 0.93301,-1.13144 1.6875,-1.41992 0.75449,-0.28849 1.64107,-0.2894 2.24023,-0.15625 0.59917,0.13314 0.90987,0.39939 1.28711,0.79882 0.37725,0.39944 0.82078,0.93281 1.41993,1.50977 0.59915,0.57696 1.35359,1.19693 2.88476,2.37305 1.53117,1.17611 3.83971,2.90711 5.19336,3.86132 1.35366,0.95422 1.75324,1.13157 2.01953,1.10938 0.26629,-0.0222 0.39906,-0.24406 0.93164,-1.8418 0.53258,-1.59773 1.46497,-4.56976 2.19727,-7.65429 0.7323,-3.08454 1.26462,-6.28041 1.66406,-8.69922 0.39944,-2.41882 0.66622,-4.0615 0.84375,-6.54688 0.17753,-2.48538 0.26492,-5.81406 0.28711,-7.78906 0.0222,-1.975 -0.0224,-2.59541 -0.17773,-2.97266 -0.15534,-0.37725 -0.42142,-0.51155 -0.86524,-0.57812 -0.44381,-0.0666 -1.06532,-0.0664 -2.01953,-0.0664 -0.95421,0 -2.23948,-3.3e-4 -4.10352,0.13281 -1.86403,0.13315 -4.30546,0.4001 -6.85742,0.77735 -2.55195,0.37724 -5.21487,0.86585 -7.54492,1.39844 -2.33005,0.53258 -4.32704,1.10879 -6.32422,1.86328 -1.99718,0.75448 -3.99404,1.68766 -5.59179,2.66406 -1.59775,0.9764 -2.797,1.99679 -3.5293,3.01758 -0.73231,1.02078 -0.99842,2.04209 -1.10938,3.17383 -0.11095,1.13173 -0.066,2.37308 0.0449,3.66015 0.11095,1.28708 0.28785,2.61934 0.50976,3.83985 0.22191,1.2205 0.48874,2.32974 1.08789,3.50585 0.59915,1.17612 1.53046,2.41793 2.10742,3.2168 0.57697,0.79888 0.79921,1.15455 0.91016,1.57617 0.11095,0.42163 0.11108,0.91062 -0.31055,1.50977 -0.42162,0.59915 -1.2645,1.30863 -3.01758,2.5957 -1.75307,1.28707 -4.41595,3.15026 -6.25781,4.50391 -1.84185,1.35365 -2.86361,2.19788 -3.77344,2.73047 -0.90982,0.53258 -1.70802,0.75336 -2.35156,0.70898 -0.64354,-0.0444 -1.13232,-0.35414 -3.41797,-1.92969 -2.28564,-1.57554 -6.36807,-4.41574 -8.60937,-6.08007 -2.2413,-1.66434 -2.64029,-2.15297 -2.77344,-2.68555 -0.13315,-0.53258 2.1e-4,-1.11016 0.17774,-1.57617 0.17752,-0.46601 0.39956,-0.82007 0.73242,-1.44141 0.33286,-0.62134 0.7751,-1.50901 1.15234,-2.33008 0.37725,-0.82106 0.68808,-1.57504 0.97656,-2.28515 0.28849,-0.71011 0.55436,-1.3755 0.6875,-2.21875 0.13315,-0.84326 0.13406,-1.86577 0.15625,-2.95313 0.0222,-1.08735 0.0671,-2.2411 0.0449,-3.19531 -0.0222,-0.95421 -0.11208,-1.70769 -0.33399,-2.48438 -0.22191,-0.77668 -0.57571,-1.57629 -1.01953,-2.30859 -0.44382,-0.7323 -0.97777,-1.39748 -1.79883,-2.04102 -0.82106,-0.64353 -1.92923,-1.2652 -3.41601,-1.95312 -1.48679,-0.68792 -3.35085,-1.44311 -5.45899,-2.06445 -2.10813,-0.62135 -4.46097,-1.10892 -6.79101,-1.55274 -2.33005,-0.44382 -4.63742,-0.84362 -7.74414,-1.15429 -3.10673,-0.31068 -7.01206,-0.53163 -8.96485,-0.64258 -1.95278,-0.11096 -1.95316,-0.11133 -2.00586,-0.11133 z m 79.22266,7.81641 c 0.28587,0.0118 0.57686,0.0389 0.875,0.0859 1.19254,0.1883 2.50903,0.69098 3.60742,1.25586 1.09839,0.56489 1.97769,1.19111 2.63672,1.72461 0.65903,0.53351 1.09939,0.97298 0.69141,1.82031 -0.40799,0.84734 -1.66395,2.10331 -3.07618,3.07618 -1.41222,0.97286 -2.98151,1.66274 -4.58203,1.97656 -1.60052,0.31382 -3.23258,0.25159 -4.58203,-0.125 -1.34945,-0.3766 -2.41581,-1.06753 -3.38867,-1.72656 -0.97287,-0.65904 -1.85087,-1.28708 -2.47852,-1.75782 -0.62765,-0.47073 -1.005,-0.7834 -0.2832,-1.66211 0.7218,-0.8787 2.54233,-2.32259 4.08008,-3.16992 1.53775,-0.84732 2.79196,-1.09881 3.95312,-1.28711 0.87087,-0.14122 1.68926,-0.24624 2.54688,-0.21093 z m -57.94336,0.13281 c 0.28587,0.0118 0.57686,0.0389 0.875,0.0859 1.19254,0.1883 2.51098,0.69097 3.60937,1.25585 1.09839,0.56489 1.97769,1.19111 2.63672,1.72461 0.65904,0.53351 1.09744,0.97298 0.68946,1.82032 -0.40799,0.84733 -1.66395,2.10331 -3.07618,3.07617 -1.41222,0.97286 -2.97955,1.66274 -4.58007,1.97656 -1.60052,0.31382 -3.23258,0.2516 -4.58204,-0.125 -1.34945,-0.37659 -2.41775,-1.06752 -3.39062,-1.72656 -0.97287,-0.65904 -1.85086,-1.28512 -2.47852,-1.75586 -0.62765,-0.47074 -1.005,-0.78536 -0.2832,-1.66406 0.7218,-0.87871 2.54233,-2.3226 4.08008,-3.16993 1.53775,-0.84732 2.79392,-1.09881 3.95508,-1.2871 0.87087,-0.14123 1.6873,-0.24625 2.54492,-0.21094 z m 21.0918,38.12109 c 1.10602,0.0111 2.05753,0.22565 2.7207,0.61524 0.66317,0.38959 1.03929,0.95504 1.44726,1.42578 0.40797,0.47074 0.84748,0.84659 1.34961,1.09765 0.50212,0.25108 1.0661,0.37567 1.59961,0.21875 0.53351,-0.15691 1.03499,-0.59566 1.53711,-1.0664 0.50212,-0.47074 1.00569,-0.97302 1.50782,-1.34961 0.50212,-0.3766 1.00281,-0.62629 1.7246,-0.78321 0.7218,-0.15699 1.66386,-0.22123 2.63672,-0.0957 0.97287,0.12553 1.97779,0.44071 3.07618,1.06836 1.09839,0.62765 2.29095,1.56888 3.26953,2.55664 0.97857,0.98776 1.74203,2.02104 1.77343,2.58594 0.0314,0.56489 -0.66893,0.66108 -1.86718,0.70898 -1.19825,0.0478 -2.89439,0.0467 -4.77735,0.0781 -1.88296,0.0314 -3.9533,0.0956 -6.68359,0.12695 -2.7303,0.0318 -6.11984,0.0313 -9.57227,0.0293 -3.45241,-0.002 -6.96865,-0.004 -8.38086,-0.44336 -1.41222,-0.43935 -0.71977,-1.31467 -0.0918,-2.09766 0.62798,-0.78299 1.19154,-1.47426 2.03125,-2.17578 0.83972,-0.70151 1.95416,-1.41483 3.14258,-1.86719 1.18841,-0.45236 2.45061,-0.64391 3.55664,-0.63281 z m 21.0625,10.85547 c 0.15298,0.0353 0.0986,0.12809 -0.13672,0.31641 -0.47074,0.3766 -1.66369,1.12949 -3.13867,1.91406 -1.47499,0.78457 -3.23165,1.60114 -4.80079,2.16601 -1.56912,0.56489 -2.95079,0.87812 -4.42578,1.06641 -1.47499,0.1883 -3.04272,0.25235 -4.48633,0.1582 -1.44359,-0.0942 -2.762,-0.34579 -4.08007,-0.78515 -1.31808,-0.43936 -2.63561,-1.06776 -3.86524,-1.69922 -1.22964,-0.63146 -2.37078,-1.26661 -3.18359,-1.82422 -0.81281,-0.55762 -1.2984,-1.03634 0.0254,-1.18945 1.32378,-0.1531 4.45516,0.0205 7.02539,0.10742 2.57022,0.0869 4.58002,0.0858 6.90234,0.11719 2.32232,0.0314 4.95867,0.0941 7.34375,0.0312 2.38508,-0.0628 4.5184,-0.24961 5.71094,-0.34375 0.59627,-0.0471 0.95639,-0.0705 1.10938,-0.0352 z"
         style="display:inline;fill:#dcdcdc;fill-opacity:1;stroke-width:1.934;stroke-linecap:round;stroke-dashoffset:2.2;paint-order:stroke fill markers"
         id="path10" />
      <path
         style="fill:#dcdcdc;fill-opacity:1;stroke-width:1.934;stroke-linecap:round;stroke-dashoffset:2.2;paint-order:stroke fill markers"
         d="m 398.93326,200.78469 c 0.31383,0.50212 0.37659,1.2553 -1.19256,2.98136 -1.56915,1.72606 -4.7701,4.4249 -6.68443,5.71157 -1.91433,1.28668 -2.54197,1.16115 -5.6175,3.32658 -3.07553,2.16543 -8.59873,6.62165 -11.42315,8.94395 -2.82441,2.3223 -2.94994,2.51059 -3.07547,2.76165 -0.12553,0.25106 -0.25106,0.56488 -0.87872,0.7218 -0.62766,0.15691 -1.7574,0.15691 -3.35793,0.0941 -1.60052,-0.0628 -3.67172,-0.18829 -6.21373,-0.21967 -2.542,-0.0314 -5.55465,0.0314 -8.22218,0.18829 -2.66753,0.15692 -4.98978,0.40797 -7.75147,0.87871 -2.76168,0.47075 -5.96262,1.16115 -7.75142,1.56912 -1.78881,0.40797 -2.16539,0.5335 2.88729,-2.88725 5.05267,-3.42076 15.53419,-10.38752 21.33994,-13.90235 5.80576,-3.51482 6.93551,-3.57759 8.4105,-3.51482 1.47499,0.0628 3.29513,0.25106 4.95841,0.43935 1.66329,0.1883 3.16962,0.37659 4.36216,0.59627 1.19254,0.21968 2.07123,0.47073 2.91856,0.65903 0.84733,0.18829 1.66326,0.31382 2.35368,0.28244 0.69042,-0.0314 1.25529,-0.21968 2.07125,-0.78457 0.81595,-0.5649 1.88293,-1.50635 2.94994,-2.44783 1.06701,-0.94148 2.13399,-1.88293 3.23239,-2.79303 1.0984,-0.9101 2.22814,-1.78879 3.10685,-2.38506 0.87872,-0.59627 1.50635,-0.91009 2.10263,-0.94147 0.59627,-0.0314 1.16114,0.21967 1.47496,0.72179 z"
         id="path15"
         inkscape:path-effect="#path-effect15"
         inkscape:original-d="m 399.18432,200.53363 c 0.0628,0.75318 0.12553,1.50636 0.1883,2.25954 -3.20107,2.69894 -6.40202,5.39777 -9.60302,8.09666 -0.62766,-0.12553 -1.2553,-0.25106 -1.88295,-0.37659 -5.52341,4.45639 -11.04661,8.91261 -16.56991,13.36891 -0.12553,0.1883 -0.25106,0.37659 -0.37659,0.56488 -0.12553,0.31383 -0.25106,0.62765 -0.37659,0.94148 -1.12979,0 -2.25953,0 -3.3893,0 -2.07128,-0.12554 -4.14248,-0.25106 -6.21372,-0.37659 -3.01277,0.0628 -6.02542,0.12553 -9.03813,0.18829 -2.32235,0.25107 -4.6446,0.50212 -6.9669,0.75318 -3.20107,0.69043 -6.40201,1.38083 -9.60302,2.07124 -0.3766,0.12553 -0.75318,0.25106 -1.12977,0.37659 10.48194,-6.96704 20.96346,-13.93379 31.44518,-20.90069 1.12979,-0.0628 2.25954,-0.12553 3.3893,-0.18829 1.82022,0.18829 3.64036,0.37658 5.46054,0.56488 1.50639,0.1883 3.01272,0.37659 4.51907,0.56488 0.87873,0.25107 1.75742,0.50212 2.63613,0.75318 0.81595,0.12553 1.63188,0.25106 2.44782,0.37659 0.5649,-0.1883 1.12977,-0.37659 1.69465,-0.56488 1.06703,-0.9415 2.13401,-1.88295 3.20101,-2.82442 1.06702,-0.94149 2.134,-1.88295 3.20101,-2.82442 1.12979,-0.87872 2.25953,-1.75741 3.3893,-2.63612 0.62766,-0.31383 1.25529,-0.62765 1.88294,-0.94147 0.5649,0.25106 1.12977,0.50211 1.69465,0.75317 z"
         transform="translate(-89.37153,-38.06024)" />
      <path
         style="fill:#dcdcdc;fill-opacity:1;stroke-width:1.934;stroke-linecap:round;stroke-dashoffset:2.2;paint-order:stroke fill markers"
         d="m 390.77384,210.92121 c 1.82018,0.34521 4.83289,1.28668 7.46904,2.13401 2.63614,0.84734 4.89563,1.6005 6.90412,2.38507 2.00849,0.78457 3.76587,1.60049 5.5233,2.47921 1.75744,0.87872 3.51482,1.82017 4.86427,2.54197 1.34945,0.7218 2.29091,1.22391 2.79303,1.53774 0.50212,0.31383 0.56488,0.43935 -2.10268,2.29095 -2.66756,1.8516 -8.06523,5.42912 -11.04657,7.2493 -2.98133,1.82019 -3.5462,1.88295 -4.14247,1.75741 -0.59627,-0.12553 -1.22391,-0.43935 -2.57338,-0.97286 -1.34946,-0.53351 -3.42066,-1.28667 -5.46053,-2.00847 -2.03988,-0.72181 -4.04831,-1.4122 -6.02542,-1.94571 -1.97712,-0.5335 -3.92279,-0.91008 -5.93129,-1.31806 -2.00849,-0.40797 -4.07969,-0.84732 -5.83712,-1.12976 -1.75743,-0.28244 -3.20099,-0.40797 -4.01694,-0.50212 -0.81595,-0.0942 -1.00423,-0.15691 1.19258,-1.97713 2.19682,-1.82021 6.77856,-5.39774 9.50884,-7.53175 2.73028,-2.13401 3.60897,-2.82441 4.26801,-3.3893 0.65903,-0.56489 1.09838,-1.00423 1.63189,-1.34944 0.5335,-0.34521 1.16114,-0.59626 2.98132,-0.25106 z"
         id="path16"
         inkscape:path-effect="#path-effect16"
         inkscape:original-d="m 389.5813,210.32495 c 3.01272,0.94147 6.02543,1.88294 9.03814,2.82441 2.25958,0.7532 4.51907,1.50636 6.7786,2.25954 1.75745,0.81596 3.51483,1.63188 5.27225,2.44783 1.75745,0.94149 3.51483,1.88294 5.27224,2.82441 0.94149,0.50213 1.88295,1.00424 2.82442,1.50636 0.0628,0.12553 0.12553,0.25106 0.18829,0.37659 -5.39788,3.57767 -10.79555,7.15519 -16.19332,10.73279 -0.5649,0.0628 -1.12977,0.12553 -1.69465,0.18829 -0.62766,-0.31383 -1.2553,-0.62765 -1.88295,-0.94147 -2.07128,-0.7532 -4.14248,-1.50636 -6.21372,-2.25954 -2.00851,-0.69042 -4.01694,-1.38082 -6.02542,-2.07124 -1.94575,-0.37659 -3.89142,-0.75317 -5.83713,-1.12976 -2.07128,-0.43937 -4.14248,-0.87871 -6.21372,-1.31806 -1.44362,-0.12554 -2.88718,-0.25106 -4.33077,-0.37659 -0.1883,-0.0628 -0.37659,-0.12553 -0.56488,-0.1883 4.58192,-3.57766 9.16366,-7.15519 13.74549,-10.73278 0.87873,-0.69043 1.75742,-1.38083 2.63613,-2.07124 0.43936,-0.43937 0.87871,-0.87871 1.31806,-1.31806 0.62766,-0.25107 1.2553,-0.50212 1.88294,-0.75318 z"
         transform="translate(-89.37153,-38.06024)" />
      <path
         style="fill:#dcdcdc;fill-opacity:1;stroke-width:1.934;stroke-linecap:round;stroke-dashoffset:2.2;paint-order:stroke fill markers"
         d="m 404.7809,231.80424 c 2.68508,-1.99716 8.32152,-5.7252 11.20631,-7.58922 2.8848,-1.86402 3.01794,-1.86402 3.83901,-1.4202 0.82107,0.44383 2.33001,1.33144 3.59489,2.1525 1.26488,0.82107 2.28564,1.57554 3.373,1.48677 1.08735,-0.0888 2.24125,-1.02077 5.37019,-3.46179 3.12894,-2.44102 8.2327,-6.39088 11.18408,-8.65434 2.95137,-2.26346 3.75022,-2.84041 4.46033,-2.88479 0.71011,-0.0444 1.33144,0.44381 1.6643,0.93201 0.33286,0.4882 0.37724,0.97639 -0.33288,1.88623 -0.71012,0.90983 -2.17467,2.24124 -5.34799,4.8154 -3.17333,2.57416 -8.05519,6.39089 -10.51837,8.3437 -2.46318,1.9528 -2.50755,2.04154 -2.3522,2.19687 0.15534,0.15533 0.51038,0.37723 -0.15535,1.02077 -0.66574,0.64354 -2.3522,1.70867 -3.99433,2.92918 -1.64213,1.2205 -3.23983,2.5963 -4.59348,3.68365 -1.35364,1.08735 -2.46316,1.88621 -3.12888,2.44098 -0.66572,0.55477 -0.88763,0.86543 -0.99858,1.17611 -0.11095,0.31067 -0.11095,0.62133 10e-6,0.95419 0.11095,0.33287 0.33285,0.68791 0.466,0.86544 0.13316,0.17753 0.17756,0.17753 -0.19971,-0.0666 -0.37727,-0.24411 -1.17612,-0.73229 -2.66292,-1.57555 -1.4868,-0.84326 -3.66145,-2.04154 -5.25919,-2.92917 -1.59774,-0.88764 -2.61849,-1.46458 -3.43956,-1.88621 -0.82106,-0.42163 -1.44239,-0.68791 -1.9084,-0.90982 -0.466,-0.22191 -0.77667,-0.39943 -1.15391,-0.55477 -0.37725,-0.15533 -0.82106,-0.28848 -1.17611,-0.48819 -0.35505,-0.19972 -0.62134,-0.46601 2.06374,-2.46318 z"
         id="path17"
         inkscape:path-effect="#path-effect17"
         inkscape:original-d="m 401.82953,233.53512 c 5.63645,-3.72804 11.27289,-7.45608 16.90933,-11.18412 0.13315,0 0.26629,0 0.39943,0 1.509,0.88765 3.01794,1.77526 4.52691,2.66289 1.02079,0.7545 2.04155,1.50897 3.06232,2.26345 1.15394,-0.93203 2.30784,-1.86402 3.46175,-2.79603 5.10397,-3.95003 10.20773,-7.8999 15.3116,-11.84984 0.79888,-0.57697 1.59773,-1.15392 2.3966,-1.73088 0.62135,0.48821 1.24268,0.97639 1.86402,1.46459 0.0444,0.4882 0.0888,0.97639 0.13314,1.46459 -1.46462,1.33147 -2.92917,2.66288 -4.39376,3.99432 -4.88206,3.81688 -9.76392,7.63361 -14.64588,11.45042 -0.0444,0.0888 -0.0888,0.17752 -0.13314,0.26628 0.35506,0.22192 0.7101,0.44382 1.06515,0.66573 -1.68652,1.06517 -3.37298,2.1303 -5.05948,3.19546 -1.59776,1.37585 -3.19546,2.75165 -4.79319,4.12747 -1.10956,0.79888 -2.21908,1.59773 -3.32861,2.3966 -0.22191,0.31068 -0.44382,0.62134 -0.66572,0.93201 0,0.31068 0,0.62134 0,0.93201 0.22191,0.35506 0.44381,0.7101 0.66572,1.06516 0.0444,0 0.0888,0 0.13314,0 -0.79888,-0.48821 -1.59773,-0.9764 -2.3966,-1.46459 -2.17473,-1.19832 -4.34938,-2.3966 -6.52407,-3.5949 -1.02079,-0.57697 -2.04154,-1.15392 -3.06232,-1.73087 -0.62135,-0.2663 -1.24268,-0.53258 -1.86402,-0.79887 -0.31067,-0.17753 -0.62134,-0.35505 -0.93201,-0.53258 -0.44382,-0.13314 -0.88763,-0.26629 -1.33144,-0.39943 -0.26629,-0.26629 -0.53258,-0.53258 -0.79887,-0.79887 z"
         transform="translate(-89.37153,-38.06024)" />
      <path
         style="fill:#dcdcdc;fill-opacity:1;stroke-width:1.934;stroke-linecap:round;stroke-dashoffset:2.2;paint-order:stroke fill markers"
         d="m 431.89796,230.76129 c 1.35363,0.466 3.3508,2.01935 5.12607,3.41738 1.77527,1.39802 3.32859,2.64068 4.68224,3.88337 1.35364,1.2427 2.50754,2.48535 3.52832,3.55052 1.02078,1.06516 1.90839,1.95277 2.17468,2.55192 0.26628,0.59915 -0.0888,0.90982 -2.13035,2.57415 -2.04158,1.66434 -5.76955,4.68221 -7.70014,6.27995 -1.93059,1.59773 -2.06374,1.77525 -2.28565,1.97497 -0.22191,0.19972 -0.53257,0.42162 -1.22049,-1e-5 -0.68793,-0.42164 -1.75306,-1.48677 -2.57412,-2.24126 -0.82106,-0.75449 -1.39801,-1.19829 -2.70728,-2.24127 -1.30928,-1.04298 -3.35078,-2.68506 -5.01509,-3.94994 -1.66432,-1.26488 -2.95136,-2.15249 -3.8168,-2.79603 -0.86545,-0.64353 -1.30925,-1.04296 -1.59773,-1.4202 -0.28849,-0.37725 -0.42162,-0.73229 -0.4882,-1.08735 -0.0666,-0.35506 -0.0666,-0.7101 0.53259,-1.39802 0.59916,-0.68792 1.79744,-1.70868 3.06233,-2.70727 1.26488,-0.99859 2.59629,-1.97496 3.88337,-2.90698 1.28707,-0.93202 2.52973,-1.81963 3.50613,-2.57412 0.9764,-0.75449 1.68648,-1.37582 3.04012,-0.90981 z"
         id="path18"
         inkscape:path-effect="#path-effect18"
         inkscape:original-d="m 431.25443,229.67394 c 1.99716,1.55335 3.99433,3.1067 5.99149,4.66005 1.55338,1.2427 3.1067,2.48536 4.66005,3.72804 1.15394,1.24271 2.30784,2.48536 3.46175,3.72804 0.88765,0.88765 1.77526,1.77526 2.66289,2.66289 -0.35506,0.31067 -0.7101,0.62134 -1.06515,0.93201 -3.72812,3.018 -7.45609,6.03587 -11.18413,9.05381 -0.13314,0.17753 -0.26629,0.35505 -0.39943,0.53258 -0.31068,0.22191 -0.62134,0.44381 -0.93201,0.66572 -1.06518,-1.06518 -2.13031,-2.13031 -3.19546,-3.19546 -0.57697,-0.44383 -1.15392,-0.88763 -1.73088,-1.33145 -2.04159,-1.64214 -4.08309,-3.28422 -6.12464,-4.92634 -1.28708,-0.88764 -2.57412,-1.77525 -3.86118,-2.66288 -0.44383,-0.39944 -0.88763,-0.79887 -1.33145,-1.1983 -0.13314,-0.35506 -0.26628,-0.7101 -0.39943,-1.06516 0,-0.35506 0,-0.7101 0,-1.06515 1.19832,-1.02079 2.3966,-2.04155 3.5949,-3.06232 1.33147,-0.97641 2.66288,-1.95278 3.99433,-2.92917 1.2427,-0.88765 2.48536,-1.77526 3.72804,-2.66289 0.71012,-0.62135 1.4202,-1.24268 2.13031,-1.86402 z"
         transform="translate(-89.37153,-38.06024)" />
      <path
         style="fill:#dcdcdc;fill-opacity:1;stroke-width:1.934;stroke-linecap:round;stroke-dashoffset:2.2;paint-order:stroke fill markers"
         d="m 436.24734,254.83821 c 1.35363,-1.4202 4.50471,-3.77241 6.7238,-5.45892 2.21909,-1.6865 3.50612,-2.70726 4.26061,-3.3286 0.75448,-0.62135 0.97639,-0.84325 1.30925,-0.84325 0.33287,1e-5 0.77667,0.22191 1.48679,0.93202 0.71011,0.71012 1.68648,1.90839 2.79603,3.23985 1.10955,1.33146 2.3522,2.79602 3.55051,4.26062 1.19831,1.4646 2.35221,2.92916 3.23984,4.12747 0.88764,1.19831 1.50896,2.1303 2.10811,3.04013 0.59916,0.90982 1.17611,1.79743 1.79746,2.77384 0.62135,0.9764 1.28705,2.04153 1.68649,2.70725 0.39943,0.66573 0.53257,0.93201 0.51038,1.24268 -0.0222,0.31068 -0.19971,0.66573 -1.04298,1.35365 -0.84326,0.68792 -2.3522,1.70867 -3.92776,2.97356 -1.57555,1.26489 -3.21763,2.77382 -4.28279,3.81679 -1.06516,1.04297 -1.55335,1.61992 -1.97497,2.01936 -0.42163,0.39943 -0.77668,0.62133 -1.13173,0.73229 -0.35506,0.11095 -0.7101,0.11095 -1.22049,-0.44383 -0.5104,-0.55478 -1.1761,-1.66429 -2.21908,-3.28423 -1.04298,-1.61995 -2.46316,-3.75021 -3.90557,-5.7474 -1.44241,-1.99718 -2.90697,-3.86116 -4.32719,-5.50329 -1.42022,-1.64213 -2.79602,-3.06231 -3.77242,-4.06089 -0.97639,-0.99859 -1.55334,-1.57554 -2.06373,-2.10812 -0.51039,-0.53258 -0.9542,-1.02077 0.39944,-2.44098 z"
         id="path19"
         inkscape:path-effect="#path-effect19"
         inkscape:original-d="m 434.44989,255.77022 c 3.15108,-2.35221 6.30216,-4.70443 9.45325,-7.05664 1.28708,-1.0208 2.57412,-2.04155 3.86118,-3.06232 0.22191,-0.22192 0.44382,-0.44382 0.66572,-0.66573 0.44383,0.22192 0.88763,0.44382 1.33145,0.66573 0.97641,1.19832 1.95278,2.39659 2.92917,3.59489 1.24271,1.46462 2.48536,2.92918 3.72804,4.39376 1.15394,1.46462 2.30784,2.92918 3.46175,4.39377 0.62136,0.93203 1.24268,1.86402 1.86402,2.79603 0.57697,0.88764 1.15392,1.77525 1.73088,2.66288 0.66574,1.06518 1.33144,2.13031 1.99717,3.19547 0.13314,0.26629 0.26628,0.53257 0.39943,0.79886 -0.17753,0.35506 -0.35505,0.71011 -0.53258,1.06516 -1.509,1.02079 -3.01794,2.04154 -4.52691,3.06232 -1.64214,1.509 -3.28422,3.01793 -4.92634,4.5269 -0.4882,0.57697 -0.97639,1.15392 -1.46458,1.73088 -0.35506,0.22191 -0.71011,0.44381 -1.06516,0.66572 -0.35506,0 -0.7101,0 -1.06515,0 -0.66574,-1.10956 -1.33144,-2.21907 -1.99717,-3.32861 -1.42023,-2.13035 -2.84041,-4.26061 -4.26061,-6.39092 -1.46462,-1.86406 -2.92918,-3.72804 -4.39377,-5.59206 -1.37585,-1.42024 -2.75165,-2.84042 -4.12747,-4.26062 -0.57697,-0.57697 -1.15392,-1.15392 -1.73088,-1.73088 -0.44382,-0.4882 -0.88763,-0.97639 -1.33144,-1.46459 z"
         transform="translate(-89.37153,-38.06024)" />
      <path
         style="fill:#dcdcdc;fill-opacity:1;stroke-width:1.934;stroke-linecap:round;stroke-dashoffset:2.2;paint-order:stroke fill markers"
         d="m 452.04713,278.36037 c 0.0666,-0.17752 0.55477,1e-5 1.04297,-0.0222 0.4882,-0.0222 0.97639,-0.2441 1.73088,-0.90983 0.7545,-0.66573 1.77525,-1.77524 3.06232,-3.01794 1.28708,-1.24269 2.8404,-2.61849 4.23843,-3.77241 1.39803,-1.15393 2.64068,-2.08592 3.37298,-2.50754 0.7323,-0.42162 0.9542,-0.33286 1.46459,0.48821 0.51039,0.82107 1.30924,2.37439 1.97497,3.72804 0.66573,1.35364 1.19829,2.50753 1.81964,3.86118 0.62135,1.35365 1.33144,2.90697 2.08593,4.61567 0.75449,1.70871 1.55334,3.57269 2.01935,4.61566 0.46601,1.04296 0.59915,1.26487 1.88624,0.24407 1.28708,-1.0208 3.72801,-3.2842 5.30356,-4.70442 1.57555,-1.42021 2.28564,-1.99715 2.95136,-2.39659 0.66573,-0.39943 1.28706,-0.62133 1.86402,-0.51038 0.57697,0.11096 1.10953,0.55476 1.35363,1.08735 0.2441,0.53258 0.19972,1.15391 -0.31067,1.99717 -0.5104,0.84325 -1.48678,1.90839 -2.95139,3.26204 -1.4646,1.35365 -3.41734,2.99572 -4.79318,4.17184 -1.37583,1.17612 -2.17468,1.88621 -2.55192,2.35221 -0.37725,0.46601 -0.33286,0.68793 -0.0888,1.66433 0.2441,0.9764 0.68791,2.70724 1.02077,4.01651 0.33286,1.30926 0.55476,2.19687 0.31066,2.92917 -0.2441,0.7323 -0.95419,1.30924 -2.13032,2.30784 -1.17612,0.9986 -2.8182,2.41877 -4.70443,4.19405 -1.88623,1.77529 -4.0165,3.90555 -5.23699,5.12604 -1.22049,1.2205 -1.53116,1.53116 -1.73088,1.77527 -0.19972,0.2441 -0.28848,0.42161 -0.51039,-0.44384 -0.22191,-0.86546 -0.57696,-2.77383 -0.9764,-4.5491 -0.39943,-1.77528 -0.84324,-3.41736 -1.37582,-5.17044 -0.53258,-1.75309 -1.15391,-3.61707 -1.86402,-5.63644 -0.71011,-2.01938 -1.50896,-4.19403 -2.35222,-6.34655 -0.84325,-2.15252 -1.73086,-4.28279 -2.41878,-5.81396 -0.68792,-1.53117 -1.1761,-2.46316 -1.61992,-3.26203 -0.44382,-0.79887 -0.84325,-1.46458 -1.22049,-2.06374 -0.37725,-0.59915 -0.73229,-1.13172 -0.66572,-1.30925 z"
         id="path20"
         inkscape:path-effect="#path-effect20"
         inkscape:original-d="m 451.62551,278.00532 c 0.48819,0.17753 0.97639,0.35506 1.46458,0.53258 0.48821,-0.22191 0.9764,-0.44381 1.46459,-0.66572 1.0208,-1.10956 2.04155,-2.21907 3.06232,-3.32861 1.55338,-1.37585 3.1067,-2.75165 4.66005,-4.12747 1.24271,-0.93203 2.48536,-1.86402 3.72804,-2.79603 0.22191,0.0888 0.44382,0.17752 0.66572,0.26629 0.79889,1.55338 1.59774,3.1067 2.3966,4.66005 0.53259,1.15394 1.06516,2.30783 1.59773,3.46175 0.71012,1.55338 1.42021,3.1067 2.13031,4.66005 0.79888,1.86406 1.59773,3.72804 2.3966,5.59206 0.13315,0.22191 0.26629,0.44382 0.39943,0.66572 2.44103,-2.2635 4.88196,-4.5269 7.32294,-6.79036 0.71012,-0.57697 1.42021,-1.15391 2.13031,-1.73087 0.62135,-0.22191 1.24268,-0.44382 1.86402,-0.66572 0.53259,0.44382 1.06515,0.88762 1.59773,1.33144 -0.0444,0.62135 -0.0888,1.24268 -0.13314,1.86402 -0.97641,1.06517 -1.95279,2.13031 -2.92918,3.19546 -1.95282,1.64215 -3.90556,3.28423 -5.85835,4.92634 -0.79888,0.71012 -1.59773,1.42021 -2.3966,2.13031 0.0444,0.22191 0.0888,0.44382 0.13315,0.66572 0.44382,1.73091 0.88763,3.46175 1.33144,5.19263 0.22191,0.88765 0.44382,1.77526 0.66572,2.66289 -0.71011,0.57697 -1.4202,1.15391 -2.13031,1.73087 -1.64214,1.42024 -3.28422,2.84041 -4.92633,4.26062 -2.13036,2.13035 -4.26062,4.26062 -6.39093,6.39093 -0.31068,0.31067 -0.62134,0.62134 -0.93201,0.93201 -0.0888,0.17753 -0.17753,0.35505 -0.26629,0.53258 -0.35506,-1.90844 -0.71011,-3.81681 -1.06516,-5.72521 -0.44382,-1.64215 -0.88763,-3.28423 -1.33144,-4.92634 -0.62135,-1.86406 -1.24268,-3.72804 -1.86402,-5.59206 -0.79888,-2.17473 -1.59773,-4.34938 -2.3966,-6.52407 -0.88764,-2.13035 -1.77525,-4.26062 -2.66288,-6.39093 -0.48821,-0.93203 -0.97639,-1.86402 -1.46459,-2.79603 -0.39944,-0.66573 -0.79887,-1.33144 -1.1983,-1.99716 -0.35506,-0.53259 -0.7101,-1.06516 -1.06515,-1.59774 z"
         transform="translate(-89.37153,-38.06024)" />
      <path
         style="fill:#dcdcdc;fill-opacity:1;stroke-width:1.934;stroke-linecap:round;stroke-dashoffset:2.2;paint-order:stroke fill markers"
         d="m 466.95465,311.20372 c 2.43214,-2.40075 7.29641,-7.20226 9.77565,-9.65011 2.47923,-2.44786 2.57333,-2.54196 2.77732,-1.99275 0.20399,0.5492 0.51781,1.74171 0.80025,2.98133 0.28245,1.23962 0.5335,2.52627 0.75318,3.78158 0.21968,1.25531 0.40797,2.4792 0.59626,3.62467 0.1883,1.14546 0.37659,2.21245 0.56488,3.3893 0.1883,1.17685 0.37659,2.46351 0.51782,3.62467 0.14122,1.16115 0.23536,2.19675 0.29814,2.91855 0.0628,0.7218 0.0942,1.12977 0.64338,0.83163 0.54921,-0.29815 1.61619,-1.30237 2.73028,-2.21246 1.11409,-0.9101 2.27521,-1.72603 3.09116,-2.25953 0.81595,-0.53351 1.28667,-0.78456 1.78879,-0.83163 0.50213,-0.0471 1.03562,0.10984 1.45928,0.42366 0.42367,0.31383 0.73749,0.78456 0.78456,1.23961 0.0471,0.45505 -0.1726,0.89439 -0.51781,1.31806 -0.34521,0.42367 -0.81594,0.83163 -1.55343,1.4436 -0.7375,0.61196 -1.74172,1.42789 -3.02842,2.54198 -1.28669,1.11409 -2.85578,2.52627 -3.73449,3.31083 -0.87871,0.78456 -1.067,0.94147 -1.33376,0.98854 -0.26676,0.0471 -0.61194,-0.0157 -0.91008,-0.14122 -0.29814,-0.12553 -0.54919,-0.31382 -1.12977,-0.0941 -0.58059,0.21968 -1.49066,0.84732 -3.92283,2.94998 -2.43218,2.10265 -6.38629,5.68018 -8.56737,7.6102 -2.18108,1.93002 -2.58905,2.21246 -2.73027,1.7574 -0.14122,-0.45506 -0.0157,-1.64756 0.0628,-3.49915 0.0785,-1.85159 0.10987,-4.36213 0.0314,-6.79429 -0.0784,-2.43216 -0.26674,-4.7858 -0.43934,-6.62169 -0.17261,-1.83588 -0.32952,-3.15391 -0.45505,-4.12677 -0.12553,-0.97287 -0.21967,-1.6005 -0.31382,-2.07125 -0.0942,-0.47074 -0.18829,-0.78455 -0.26675,-1.09838 -0.0785,-0.31383 -0.14122,-0.62764 -0.17261,-0.78455 -0.0314,-0.15691 -0.0315,-0.15691 2.40066,-2.55767 z"
         id="path21"
         inkscape:path-effect="#path-effect21"
         inkscape:original-d="m 464.52251,313.60448 c 4.86428,-4.80151 9.72855,-9.60302 14.59282,-14.40453 0.0942,-0.0942 0.1883,-0.1883 0.28245,-0.28244 0.31383,1.19255 0.62764,2.38506 0.94147,3.57759 0.25106,1.28671 0.50212,2.57336 0.75318,3.86004 0.1883,1.22394 0.37659,2.44783 0.56488,3.67174 0.1883,1.06702 0.37659,2.13401 0.56488,3.20101 0.1883,1.2867 0.37659,2.57336 0.56489,3.86003 0.0942,1.03564 0.18829,2.07124 0.28244,3.10686 0.0314,0.40798 0.0628,0.81595 0.0942,1.22392 1.06702,-1.00426 2.134,-2.00848 3.201,-3.01271 1.16118,-0.81596 2.3223,-1.63189 3.48345,-2.44783 0.47075,-0.25107 0.94147,-0.50212 1.41221,-0.75318 0.53351,0.15691 1.067,0.31382 1.6005,0.47074 0.31383,0.47074 0.62765,0.94147 0.94148,1.4122 -0.21969,0.43937 -0.43936,0.87871 -0.65904,1.31807 -0.47074,0.40798 -0.94147,0.81594 -1.4122,1.22391 -1.00426,0.81596 -2.00848,1.63189 -3.01272,2.44783 -1.56915,1.41224 -3.13824,2.82442 -4.70736,4.23662 -0.1883,0.15692 -0.37659,0.31383 -0.56488,0.47074 -0.34522,-0.0628 -0.69041,-0.12553 -1.03562,-0.18829 -0.25107,-0.1883 -0.50212,-0.37659 -0.75318,-0.56489 -0.91011,0.62766 -1.82018,1.2553 -2.73027,1.88295 -3.95426,3.57766 -7.90837,7.15519 -11.86255,10.73278 -0.40798,0.28245 -0.81595,0.56489 -1.22392,0.84733 0.12554,-1.19256 0.25106,-2.38506 0.37659,-3.5776 0.0314,-2.51064 0.0628,-5.02118 0.0942,-7.53178 -0.1883,-2.35372 -0.37659,-4.70736 -0.56488,-7.06104 -0.15692,-1.31809 -0.31383,-2.63612 -0.47074,-3.95418 -0.0942,-0.62766 -0.18829,-1.2553 -0.28244,-1.88295 -0.0942,-0.31383 -0.1883,-0.62765 -0.28244,-0.94147 -0.0628,-0.31383 -0.12553,-0.62765 -0.1883,-0.94147 z"
         transform="translate(-89.37153,-38.06024)" />
      <path
         style="fill:#dcdcdc;fill-opacity:1;stroke-width:1.934;stroke-linecap:round;stroke-dashoffset:2.2;paint-order:stroke fill markers"
         d="m 468.41393,337.06283 c 2.57336,-2.14969 7.72007,-6.44909 10.40328,-8.63017 2.6832,-2.18108 2.90287,-2.24384 3.13824,-2.16538 0.23537,0.0785 0.48642,0.29813 0.73748,0.42365 0.25106,0.12553 0.50213,0.15689 0.64335,0.97284 0.14123,0.81595 0.17263,2.41642 0.15695,4.33077 -0.0157,1.91435 -0.0784,4.14246 -0.21968,6.59031 -0.14122,2.44786 -0.36089,5.11531 -0.62765,7.26502 -0.26675,2.14972 -0.58057,3.78157 -0.83163,5.11534 -0.25106,1.33376 -0.43935,2.36935 -0.75318,3.81296 -0.31383,1.44361 -0.75318,3.29514 -1.28668,5.02119 -0.53351,1.72605 -1.16114,3.32652 -1.56912,4.28368 -0.40797,0.95717 -0.59626,1.27099 -0.64334,0.84731 -0.0471,-0.42367 0.0471,-1.5848 0.47075,-3.81298 0.42367,-2.22818 1.17683,-5.52327 1.49066,-7.2493 0.31382,-1.72604 0.18829,-1.88295 -0.15692,-1.74173 -0.34521,0.14123 -0.91009,0.58058 -4.28376,3.62473 -3.37367,3.04415 -9.55588,8.69287 -12.72551,11.53297 -3.16963,2.8401 -3.32654,2.87147 -3.45206,2.68316 -0.12553,-0.1883 -0.21967,-0.59627 0.34522,-2.52632 0.5649,-1.93006 1.78878,-5.38205 2.69888,-8.59878 0.9101,-3.21673 1.50635,-6.198 1.99278,-8.61446 0.48643,-2.41647 0.86301,-4.26799 1.16115,-6.00973 0.29813,-1.74174 0.5178,-3.3736 0.62764,-4.18954 0.10984,-0.81594 0.10979,-0.81584 2.68315,-2.96554 z"
         id="path22"
         inkscape:path-effect="#path-effect22"
         inkscape:original-d="m 465.84057,339.21253 c 5.14672,-4.29939 10.29344,-8.59878 15.44015,-12.89818 0.21968,-0.0628 0.43936,-0.12552 0.65903,-0.18829 0.25107,0.21968 0.50212,0.43935 0.75318,0.65903 0.25106,0.0314 0.50212,0.0628 0.75318,0.0941 0.0314,1.60053 0.0628,3.201 0.0942,4.80151 -0.0628,2.22819 -0.12553,4.4563 -0.1883,6.68445 -0.21968,2.66756 -0.43935,5.33501 -0.65903,8.00252 -0.31383,1.63192 -0.62765,3.26377 -0.94147,4.89565 -0.1883,1.03565 -0.37659,2.07124 -0.56489,3.10686 -0.43936,1.8516 -0.8787,3.70313 -1.31806,5.55469 -0.62766,1.60054 -1.25529,3.20101 -1.88294,4.80151 -0.1883,0.31383 -0.37659,0.62765 -0.56489,0.94147 0.0942,-1.16117 0.1883,-2.3223 0.28245,-3.48344 0.75319,-3.29522 1.50635,-6.59031 2.25953,-9.88547 -0.12553,-0.15691 -0.25106,-0.31382 -0.37659,-0.47073 -0.56489,0.43936 -1.12977,0.87871 -1.69465,1.31806 -6.18246,5.64895 -12.36467,11.29767 -18.54701,16.9465 -0.15691,0.0314 -0.31382,0.0628 -0.47073,0.0941 -0.0941,-0.40798 -0.1883,-0.81594 -0.28244,-1.22391 1.22393,-3.45214 2.44782,-6.90413 3.67174,-10.3562 0.59628,-2.98139 1.19253,-5.96266 1.7888,-8.94399 0.37659,-1.8516 0.75317,-3.70312 1.12976,-5.55469 0.21968,-1.63191 0.43936,-3.26377 0.65903,-4.89565 z"
         transform="translate(-89.37153,-38.06024)" />
      <path
         style="fill:#dcdcdc;fill-opacity:1;stroke-width:1.934;stroke-linecap:round;stroke-dashoffset:2.2;paint-order:stroke fill markers"
         d="m 458.76383,368.9003 c -0.0157,0.21967 -0.0471,0.65902 0.20396,0.75317 0.25105,0.0941 0.78454,-0.15691 4.20529,-3.09122 3.42075,-2.93432 9.72849,-8.55166 12.97657,-11.37609 3.24808,-2.82442 3.43637,-2.85582 3.15392,-0.83162 -0.28245,2.0242 -1.03561,6.10383 -1.44358,8.36337 -0.40797,2.25954 -0.47074,2.69888 1.27102,1.27095 1.74176,-1.42793 5.2879,-4.72301 7.37484,-6.63735 2.08694,-1.91433 2.71457,-2.44782 3.29515,-2.74596 0.58058,-0.29813 1.11407,-0.3609 1.63189,-0.1569 0.51781,0.20399 1.01992,0.67471 1.31805,1.19253 0.29814,0.51782 0.39228,1.08269 0.43936,1.56912 0.0471,0.48643 0.0471,0.89439 -2.73033,3.49918 -2.7774,2.60479 -8.33197,7.4062 -11.28192,10.07371 -2.94995,2.66751 -3.29515,3.201 -4.20526,5.02121 -0.91011,1.82022 -2.38505,4.92701 -3.45205,7.15518 -1.06701,2.22816 -1.72603,3.57758 -2.90289,5.66454 -1.17686,2.08696 -2.87147,4.91132 -4.56614,7.53178 -1.69467,2.62045 -3.38929,5.03685 -5.85284,8.0339 -2.46355,2.99706 -5.69587,6.57458 -9.05383,10.04237 -3.35795,3.4678 -6.84133,6.82565 -10.40327,9.93254 -3.56194,3.10688 -7.20223,5.96262 -12.14502,8.99106 -4.94279,3.02843 -11.18777,6.22937 -16.30315,8.59876 -5.11537,2.36939 -9.10085,3.9071 -12.96093,5.13102 -3.86007,1.22393 -7.5945,2.134 -10.84261,2.80873 -3.24811,0.67472 -6.00971,1.11407 -8.944,1.36513 -2.93428,0.25105 -6.04108,0.31382 -8.1594,0.29812 -2.11833,-0.0157 -3.24807,-0.10983 -3.90711,-0.17259 -0.65904,-0.0628 -0.84733,-0.0941 0.80029,-1.55343 1.64762,-1.4593 5.131,-4.34643 8.42618,-7.10811 3.29518,-2.76168 6.40198,-5.39775 8.20647,-6.99826 1.8045,-1.6005 2.30661,-2.16538 4.51911,-3.05979 2.2125,-0.89441 6.13522,-2.1183 10.3562,-3.82866 4.22098,-1.71036 8.73996,-3.90709 12.72556,-6.08819 3.9856,-2.1811 7.4376,-4.34644 11.61151,-7.40627 4.17391,-3.05982 9.06947,-7.01393 12.92953,-10.68571 3.86007,-3.67177 6.68443,-7.061 8.94398,-9.9639 2.25955,-2.9029 3.95417,-5.3193 5.27224,-7.32779 1.31807,-2.00849 2.25952,-3.60896 3.53052,-5.89991 1.27101,-2.29094 2.87148,-5.27221 3.92279,-7.48469 1.05132,-2.21247 1.55343,-3.65603 1.80449,-4.37782 0.25106,-0.7218 0.25111,-0.72179 0.23541,-0.50211 z"
         id="path23"
         inkscape:path-effect="#path-effect23"
         inkscape:original-d="m 458.77953,368.68062 c -0.0314,0.43935 -0.0628,0.8787 -0.0942,1.31806 0.53351,-0.25107 1.067,-0.50212 1.60051,-0.75318 6.30799,-5.61757 12.61573,-11.23491 18.92359,-16.85236 0.1883,-0.0314 0.37659,-0.0628 0.56489,-0.0942 -0.7532,4.0798 -1.50636,8.15943 -2.25954,12.23915 -0.0628,0.43936 -0.12553,0.8787 -0.18829,1.31806 3.54628,-3.29522 7.09242,-6.59031 10.63864,-9.88546 0.62766,-0.53351 1.25529,-1.067 1.88294,-1.60051 0.53351,-0.0628 1.067,-0.12553 1.6005,-0.18829 0.50213,0.47075 1.00424,0.94147 1.50636,1.41221 0.0942,0.56489 0.18829,1.12977 0.28244,1.69465 0,0.40798 0,0.81594 0,1.22391 -5.5548,4.80161 -11.10937,9.60302 -16.66406,14.40453 -0.34521,0.53351 -0.69041,1.067 -1.03562,1.6005 -1.475,3.10693 -2.94995,6.21372 -4.42492,9.32058 -0.65904,1.34947 -1.31806,2.69889 -1.97709,4.04833 -1.69469,2.82448 -3.3893,5.64884 -5.08395,8.47326 -1.69469,2.41649 -3.38931,4.83289 -5.08396,7.24933 -3.23245,3.57767 -6.46477,7.15519 -9.69716,10.73279 -3.48352,3.35799 -6.9669,6.71584 -10.45035,10.07376 -3.64043,2.85585 -7.28072,5.71159 -10.92108,8.56739 -6.24522,3.20107 -12.4902,6.40202 -18.7353,9.60302 -3.98565,1.53777 -7.97113,3.07548 -11.9567,4.61322 -3.73458,0.91011 -7.46901,1.82018 -11.20352,2.73027 -2.76171,0.43936 -5.52331,0.87871 -8.28496,1.31806 -3.10692,0.0628 -6.21372,0.12553 -9.32058,0.18829 -1.12979,-0.0941 -2.25953,-0.18829 -3.3893,-0.28244 -0.1883,-0.0314 -0.37659,-0.0628 -0.56488,-0.0941 3.48352,-2.88724 6.9669,-5.77437 10.45034,-8.66155 3.10692,-2.63618 6.21372,-5.27225 9.32058,-7.90837 0.50213,-0.56489 1.00424,-1.12977 1.50636,-1.69465 3.92288,-1.22394 7.8456,-2.44783 11.7684,-3.67174 4.51916,-2.19682 9.03814,-4.39354 13.55721,-6.59031 3.45213,-2.16543 6.90413,-4.33077 10.35619,-6.49616 4.89576,-3.95426 9.79132,-7.90837 14.68697,-11.86255 2.82448,-3.38937 5.64884,-6.7786 8.47326,-10.16791 1.69468,-2.41649 3.3893,-4.83289 5.08395,-7.24933 0.94149,-1.60054 1.88294,-3.20101 2.82441,-4.80151 1.60054,-2.98139 3.20101,-5.96266 4.80151,-8.94399 0.50213,-1.44362 1.00424,-2.88718 1.50636,-4.33077 z"
         transform="translate(-89.37153,-38.06024)" />
      <path
         style="fill:#dcdcdc;fill-opacity:1;stroke-width:1.934;stroke-linecap:round;stroke-dashoffset:2.2;paint-order:stroke fill markers"
         d="m 383.36686,435.20438 c -3.06232,2.70726 -9.67516,8.16618 -13.24787,11.27289 -3.57271,3.10671 -4.10528,3.86118 -3.48392,4.21623 0.62136,0.35505 2.39658,0.31067 6.43536,-0.22192 4.03877,-0.53258 10.34081,-1.55334 15.00089,-2.50755 4.66008,-0.95421 7.67796,-1.84182 11.42823,-3.08452 3.75028,-1.2427 8.23272,-2.8404 11.47258,-4.14966 3.23986,-1.30926 5.23699,-2.33001 7.34513,-3.35079 2.10814,-1.02079 4.32717,-2.04154 6.08025,-2.97356 1.75308,-0.93202 3.04011,-1.77525 1.02071,-0.57692 -2.01941,1.19833 -7.34508,4.43811 -12.31584,6.99007 -4.97077,2.55195 -9.58635,4.41593 -13.98015,5.85834 -4.39381,1.4424 -8.56558,2.46316 -13.11473,3.39517 -4.54914,0.93202 -9.47539,1.77525 -13.42536,2.28564 -3.94998,0.51039 -6.92348,0.68791 -10.09678,0.7101 -3.17331,0.0222 -6.54623,-0.11095 -9.5642,-0.31067 -3.01796,-0.19972 -5.68079,-0.466 -7.76673,-0.73229 -2.08595,-0.2663 -3.59489,-0.53258 -5.56988,-0.88764 -1.975,-0.35505 -4.41593,-0.79886 -6.21339,-1.19829 -1.79746,-0.39944 -2.95136,-0.75448 -4.03872,-1.10953 -1.08735,-0.35506 -2.1081,-0.7101 -2.70725,-0.90982 -0.59915,-0.19972 -0.77669,-0.2441 -0.84325,-0.37725 -0.0666,-0.13314 -0.0222,-0.35506 0.31068,-0.4882 0.33286,-0.13313 0.95419,-0.17752 1.9306,0.0444 0.9764,0.22191 2.30782,0.71009 3.79461,1.15391 1.4868,0.44382 3.12888,0.84325 4.43814,1.15392 1.30926,0.31067 2.28563,0.53257 2.99574,0.57695 0.71011,0.0444 1.15391,-0.0888 1.97498,-0.77668 0.82107,-0.68793 2.01935,-1.93058 3.77244,-3.55052 1.75309,-1.61995 4.06087,-3.61707 6.01367,-5.32577 1.9528,-1.7087 3.5505,-3.12888 4.52689,-4.01651 0.9764,-0.88763 1.33145,-1.24268 2.37443,-1.33144 1.04298,-0.0888 2.77382,0.0888 4.63786,0.11095 1.86404,0.0222 3.86117,-0.11095 5.96931,-0.2441 2.10814,-0.13315 4.32717,-0.26629 6.65722,-0.53258 2.33005,-0.26629 4.77098,-0.66572 6.50186,-0.97639 1.73089,-0.31067 2.75164,-0.53257 3.50613,-0.66572 0.75449,-0.13314 1.24268,-0.17752 -1.81964,2.52975 z"
         id="path25"
         inkscape:path-effect="#path-effect25"
         inkscape:original-d="m 386.91737,432.45273 c -6.61283,5.45891 -13.22567,10.91783 -19.8385,16.37675 -0.53259,0.7545 -1.06516,1.50897 -1.59773,2.26345 1.77529,-0.0444 3.55051,-0.0888 5.32577,-0.13314 6.30229,-1.0208 12.60433,-2.04155 18.90649,-3.06232 3.018,-0.88765 6.03588,-1.77526 9.05381,-2.66289 4.48262,-1.59776 8.96506,-3.19546 13.44758,-4.7932 1.9972,-1.02079 3.99433,-2.04154 5.99149,-3.06231 2.21912,-1.0208 4.43815,-2.04155 6.65722,-3.06232 1.28709,-0.84327 2.57412,-1.6865 3.86119,-2.52975 -5.32588,3.23991 -10.65155,6.47969 -15.97732,9.71954 -4.61576,1.86406 -9.23134,3.72804 -13.84701,5.59206 -4.17194,1.02079 -8.34371,2.04155 -12.51557,3.06232 -4.92643,0.84326 -9.85268,1.68649 -14.77901,2.52974 -2.97362,0.17753 -5.94712,0.35505 -8.92067,0.53258 -3.37306,-0.13315 -6.74598,-0.26629 -10.11897,-0.39943 -2.66294,-0.2663 -5.32577,-0.53258 -7.98866,-0.79887 -1.509,-0.26629 -3.01794,-0.53258 -4.52691,-0.79887 -2.44102,-0.44382 -4.88195,-0.88762 -7.32293,-1.33144 -1.15394,-0.35506 -2.30784,-0.7101 -3.46176,-1.06515 -1.02079,-0.35506 -2.04154,-0.71011 -3.06232,-1.06516 -0.17752,-0.0444 -0.35505,-0.0888 -0.53257,-0.13314 0.0444,-0.22191 0.0888,-0.44382 0.13314,-0.66572 0.62135,-0.0444 1.24268,-0.0888 1.86402,-0.13315 1.33147,0.48821 2.66289,0.97639 3.99433,1.46459 1.64215,0.39944 3.28423,0.79886 4.92634,1.1983 0.97641,0.22191 1.95278,0.44381 2.92918,0.66572 0.44382,-0.13315 0.88762,-0.26629 1.33144,-0.39943 1.19832,-1.24271 2.3966,-2.48536 3.5949,-3.72804 2.30788,-1.99721 4.61566,-3.99433 6.9235,-5.9915 1.59776,-1.42023 3.19546,-2.84041 4.79319,-4.26062 0.35506,-0.35505 0.71011,-0.7101 1.06516,-1.06515 1.73091,0.17753 3.46175,0.35505 5.19263,0.53258 1.9972,-0.13315 3.99433,-0.26629 5.99149,-0.39944 2.21912,-0.13314 4.43815,-0.26629 6.65722,-0.39943 2.44103,-0.39944 4.88196,-0.79887 7.32293,-1.1983 1.0208,-0.22191 2.04155,-0.44381 3.06232,-0.66572 0.48821,-0.0444 0.9764,-0.0888 1.46459,-0.13314 z"
         transform="translate(-89.37153,-38.06024)" />
      <path
         style="fill:#dcdcdc;fill-opacity:1;stroke-width:1.934;stroke-linecap:round;stroke-dashoffset:2.2;paint-order:stroke fill markers"
         d="m 353.3872,437.86726 c -2.37441,2.48536 -7.6558,7.32294 -10.36307,9.76392 -2.70728,2.44098 -2.84042,2.48536 -3.17328,2.50755 -0.33286,0.0222 -0.86543,0.0222 -1.75307,-0.15534 -0.88764,-0.17753 -2.1303,-0.53258 -3.88339,-1.02078 -1.75309,-0.4882 -4.0165,-1.10953 -5.39233,-1.46458 -1.37583,-0.35505 -1.86401,-0.44381 -2.24126,-0.44381 -0.37725,0 -0.64352,0.0888 -2.61853,1.84186 -1.97502,1.7531 -5.6586,5.17041 -7.76673,6.8569 -2.10812,1.6865 -2.64068,1.64211 -3.06231,1.46458 -0.42163,-0.17752 -0.73229,-0.48819 -0.93201,-0.93201 -0.19972,-0.44383 -0.28848,-1.02077 -0.2219,-1.50897 0.0666,-0.48819 0.28847,-0.88762 0.77668,-1.39801 0.4882,-0.5104 1.24267,-1.13172 2.77385,-2.48538 1.53118,-1.35365 3.83897,-3.43954 4.88194,-4.59346 1.04296,-1.15392 0.82105,-1.37582 0.57695,-1.50897 -0.2441,-0.13314 -0.51039,-0.17752 0.15535,-0.90983 0.66574,-0.7323 2.26344,-2.15248 4.03872,-3.8168 1.77528,-1.66433 3.72802,-3.57269 4.9707,-4.79319 1.24269,-1.22049 1.77526,-1.75306 2.1525,-2.17469 0.37725,-0.42162 0.59915,-0.73229 0.79887,-0.9542 0.19972,-0.2219 0.37724,-0.35505 0.93202,-0.26628 0.55478,0.0888 1.48677,0.39943 2.55193,0.64353 1.06517,0.2441 2.26344,0.42162 4.0831,0.71011 1.81967,0.28848 4.2606,0.68791 6.23559,0.97639 1.97499,0.28848 3.48393,0.466 4.70443,0.59914 1.2205,0.13315 2.15249,0.22191 2.88479,0.33286 0.7323,0.11096 1.26486,0.2441 -1.10954,2.72946 z"
         id="path26"
         inkscape:path-effect="#path-effect26"
         inkscape:original-d="m 356.29418,435.51504 c -5.28139,4.83758 -10.56278,9.67516 -15.84417,14.51274 -0.13315,0.0444 -0.26629,0.0888 -0.39944,0.13314 -0.53258,0 -1.06515,0 -1.59773,0 -1.2427,-0.35506 -2.48536,-0.7101 -3.72804,-1.06516 -2.2635,-0.62135 -4.52691,-1.24268 -6.79036,-1.86402 -0.4882,-0.0888 -0.97639,-0.17752 -1.46459,-0.26628 -0.26629,0.0888 -0.53257,0.17752 -0.79886,0.26628 -3.68374,3.41744 -7.36732,6.83475 -11.05098,10.25212 -0.53259,-0.0444 -1.06515,-0.0888 -1.59773,-0.13315 -0.31068,-0.31067 -0.62134,-0.62134 -0.93201,-0.93201 -0.0888,-0.57697 -0.17753,-1.15392 -0.26629,-1.73087 0.22191,-0.39944 0.44381,-0.79887 0.66572,-1.1983 0.7545,-0.62136 1.50897,-1.24268 2.26345,-1.86402 2.30788,-2.08597 4.61567,-4.17186 6.92351,-6.25779 -0.22191,-0.22191 -0.44382,-0.44381 -0.66572,-0.66572 -0.2663,-0.0444 -0.53258,-0.0888 -0.79887,-0.13314 1.59776,-1.42024 3.19546,-2.84041 4.7932,-4.26062 1.95282,-1.90844 3.90556,-3.8168 5.85835,-5.72521 0.53258,-0.53258 1.06515,-1.06515 1.59773,-1.59773 0.22191,-0.31067 0.44381,-0.62134 0.66572,-0.93201 0.17753,-0.13314 0.35505,-0.26629 0.53258,-0.39943 0.93203,0.31068 1.86402,0.62134 2.79603,0.93201 1.19832,0.17753 2.39659,0.35505 3.59489,0.53258 2.44103,0.39944 4.88196,0.79886 7.32294,1.1983 1.509,0.17753 3.01794,0.35505 4.52691,0.53257 0.93203,0.0888 1.86402,0.17753 2.79603,0.26629 0.53259,0.13315 1.06515,0.26629 1.59773,0.39943 z"
         transform="translate(-89.37153,-38.06024)" />
      <path
         style="fill:#dcdcdc;fill-opacity:1;stroke-width:1.934;stroke-linecap:round;stroke-dashoffset:2.2;paint-order:stroke fill markers"
         d="m 321.49913,443.39275 c 0.97639,-0.90981 2.70727,-2.59631 4.74884,-4.57131 2.04157,-1.975 4.39374,-4.23841 5.4367,-5.4589 1.04296,-1.22049 0.77668,-1.39801 0.26629,-1.64211 -0.5104,-0.24411 -1.26487,-0.55477 -2.59633,-0.99859 -1.33146,-0.44382 -3.23983,-1.02076 -5.34797,-1.81964 -2.10814,-0.79887 -4.41593,-1.81963 -6.96789,-3.04013 -2.55196,-1.22051 -5.34794,-2.64068 -7.43388,-3.77242 -2.08594,-1.13173 -3.46173,-1.97496 -4.52689,-2.57412 -1.06517,-0.59915 -1.81964,-0.9542 -2.50756,-1.37583 -0.68792,-0.42163 -1.30924,-0.90981 -1.81963,-0.97638 -0.51039,-0.0666 -0.90982,0.28848 -1.93061,1.15393 -1.02079,0.86545 -2.66287,2.24125 -4.46033,3.86119 -1.79747,1.61994 -3.75022,3.48393 -4.83757,4.37156 -1.08735,0.88762 -1.30925,0.79886 -1.37582,1.02078 -0.0666,0.22192 0.0222,0.75447 0.79888,1.48677 0.77669,0.73231 2.24125,1.6643 4.17186,2.84042 1.93062,1.17612 4.32717,2.5963 6.92351,3.99433 2.59635,1.39803 5.39232,2.77383 7.47826,3.70584 2.08594,0.93202 3.46174,1.4202 4.81539,1.95279 1.35365,0.53258 2.68506,1.10953 3.68365,1.53115 0.99859,0.42163 1.6643,0.68791 2.1525,0.90982 0.4882,0.22191 0.79886,0.39943 1.08734,0.4882 0.28848,0.0888 0.55477,0.0888 0.79887,0.0222 0.2441,-0.0666 0.466,-0.19972 1.44239,-1.10954 z"
         id="path27"
         inkscape:path-effect="#path-effect27"
         inkscape:original-d="m 320.74465,444.16943 c 1.73087,-1.6865 3.46175,-3.37299 5.19263,-5.05949 2.35226,-2.2635 4.70443,-4.52691 7.05664,-6.79036 -0.26629,-0.17753 -0.53257,-0.35505 -0.79886,-0.53258 -0.7545,-0.31067 -1.50897,-0.62134 -2.26345,-0.93201 -1.90844,-0.57697 -3.81681,-1.15391 -5.72521,-1.73087 -2.30788,-1.0208 -4.61567,-2.04155 -6.9235,-3.06232 -2.79609,-1.42024 -5.59207,-2.84041 -8.3881,-4.26062 -1.37585,-0.84326 -2.75164,-1.68649 -4.12747,-2.52974 -0.7545,-0.35506 -1.50897,-0.7101 -2.26345,-1.06516 -0.62136,-0.4882 -1.24268,-0.97639 -1.86402,-1.46458 -0.39944,0.35506 -0.79887,0.7101 -1.1983,1.06515 -1.64215,1.37585 -3.28423,2.75165 -4.92634,4.12748 -1.95282,1.86405 -3.90557,3.72804 -5.85835,5.59206 -0.22191,-0.0888 -0.44382,-0.17753 -0.66572,-0.26629 0.0888,0.53259 0.17752,1.06515 0.26629,1.59773 1.46461,0.93203 2.92917,1.86402 4.39376,2.79603 2.39664,1.42023 4.79319,2.84041 7.18979,4.26062 2.79609,1.37585 5.59206,2.75165 8.38809,4.12747 1.37585,0.48821 2.75165,0.97639 4.12748,1.46459 1.33147,0.57697 2.66288,1.15392 3.99433,1.73088 0.66573,0.26629 1.33144,0.53257 1.99716,0.79886 0.31068,0.17753 0.62134,0.35505 0.93201,0.53258 0.26629,0 0.53258,0 0.79887,0 0.22191,-0.13315 0.44381,-0.26629 0.66572,-0.39943 z"
         transform="translate(-89.37153,-38.06024)" />
      <path
         style="fill:#dcdcdc;fill-opacity:1;stroke-width:1.934;stroke-linecap:round;stroke-dashoffset:2.2;paint-order:stroke fill markers"
         d="m 320.3674,445.85592 c 0.37725,-0.0888 0.64354,-0.35505 0.33286,-0.66572 -0.31068,-0.31068 -1.19829,-0.66572 -2.06374,-0.9542 -0.86545,-0.28849 -1.70868,-0.51039 -3.04014,-0.9986 -1.33146,-0.4882 -3.15106,-1.24267 -4.54909,-1.86401 -1.39802,-0.62135 -2.37439,-1.10953 -3.59489,-1.70869 -1.22051,-0.59916 -2.68507,-1.30925 -4.34939,-2.19688 -1.66432,-0.88764 -3.52831,-1.95278 -5.17044,-2.95137 -1.64212,-0.99859 -3.0623,-1.93058 -4.19404,-2.68507 -1.13173,-0.75449 -1.97496,-1.33144 -2.66288,-1.79745 -0.68792,-0.46601 -1.22048,-0.82105 -1.6643,-1.17611 -0.44382,-0.35505 -0.79886,-0.71009 -0.84324,-0.97638 -0.0444,-0.26629 0.2219,-0.44382 2.37444,-2.39664 2.15254,-1.95282 6.19117,-5.68078 8.18833,-7.5892 1.99715,-1.90842 1.95278,-1.99717 1.73088,-2.21907 -0.22191,-0.2219 -0.62134,-0.57695 -1.73089,-1.42021 -1.10955,-0.84326 -2.92916,-2.17467 -5.01511,-3.90557 -2.08595,-1.7309 -4.43812,-3.86117 -6.92351,-6.30217 -2.48538,-2.44101 -5.10383,-5.1926 -6.90129,-7.23416 -1.79746,-2.04156 -2.77383,-3.37298 -3.70585,-4.63786 -0.93202,-1.26488 -1.81963,-2.46316 -2.48536,-3.43956 -0.66572,-0.9764 -1.10953,-1.73087 -1.97498,-1.44238 -0.86545,0.2885 -2.15249,1.61992 -4.37159,3.6393 -2.2191,2.01938 -5.37012,4.72659 -7.03443,6.23557 -1.6643,1.50897 -1.84182,1.81963 -0.99856,3.19548 0.84327,1.37585 2.70725,3.81678 4.70443,6.2134 1.99719,2.39662 4.12746,4.74879 6.43532,7.10103 2.30786,2.35224 4.79317,4.70441 6.32433,6.1912 1.53117,1.48678 2.10812,2.10811 2.48536,2.48535 0.37724,0.37724 0.55477,0.51039 -2e-5,1.10955 -0.55478,0.59916 -1.84181,1.66429 -3.12889,2.8626 -1.28707,1.19831 -2.57411,2.52973 -5.68086,5.37019 -3.10675,2.84045 -8.03299,7.18974 -10.56273,9.60854 -2.52974,2.41879 -2.66289,2.90698 -2.52974,3.52833 0.13315,0.62134 0.53258,1.37581 0.99859,1.75306 0.46601,0.37724 0.99857,0.37724 1.53115,0.28847 0.53259,-0.0888 1.06515,-0.26628 4.90422,-3.63934 3.83907,-3.37306 10.98433,-9.94137 14.69019,-13.31437 3.70585,-3.37299 3.97213,-3.55051 4.7932,-3.10669 0.82107,0.44383 2.19687,1.50896 4.12749,2.8848 1.93062,1.37584 4.41593,3.06231 7.38952,4.88196 2.97359,1.81966 6.43527,3.77241 9.25352,5.21481 2.81824,1.44241 4.99288,2.3744 6.70158,3.1067 1.7087,0.7323 2.95136,1.26487 4.01652,1.70868 1.06516,0.44382 1.95277,0.79887 2.64069,1.02078 0.68793,0.22191 1.1761,0.31067 1.55334,0.2219 z"
         id="path28"
         inkscape:path-effect="#path-effect28"
         inkscape:original-d="m 320.47836,446.03345 c 0.26629,-0.26629 0.53258,-0.53258 0.79887,-0.79887 -0.88765,-0.35506 -1.77526,-0.7101 -2.66289,-1.06515 -0.84327,-0.22192 -1.6865,-0.44382 -2.52974,-0.66573 -1.81968,-0.7545 -3.63928,-1.50897 -5.45892,-2.26345 -0.97641,-0.48821 -1.95278,-0.97639 -2.92917,-1.46459 -1.46462,-0.71011 -2.92918,-1.4202 -4.39377,-2.13031 -1.86405,-1.06517 -3.72804,-2.13031 -5.59206,-3.19546 -1.42023,-0.93203 -2.84041,-1.86402 -4.26062,-2.79603 -0.84326,-0.57697 -1.68649,-1.15392 -2.52974,-1.73088 -0.53259,-0.35505 -1.06515,-0.7101 -1.59773,-1.06515 -0.35506,-0.35506 -0.7101,-0.7101 -1.06515,-1.06516 0.26629,-0.17752 0.53257,-0.35505 0.79886,-0.53257 4.03879,-3.72812 8.07742,-7.45608 12.11613,-11.18412 -0.0444,-0.0888 -0.0888,-0.17753 -0.13314,-0.26629 -0.39944,-0.35506 -0.79887,-0.71011 -1.1983,-1.06516 -1.81967,-1.33147 -3.63928,-2.66288 -5.45892,-3.99433 -2.35226,-2.13035 -4.70443,-4.26062 -7.05664,-6.39092 -2.61856,-2.75171 -5.23701,-5.5033 -7.85552,-8.25495 -0.97641,-1.33147 -1.95278,-2.66289 -2.92917,-3.99433 -0.88765,-1.19832 -1.77526,-2.3966 -2.66289,-3.5949 -0.44382,-0.7545 -0.88763,-1.50897 -1.33144,-2.26345 -1.28709,1.33147 -2.57413,2.66289 -3.86119,3.99433 -3.15114,2.70732 -6.30216,5.41453 -9.45324,8.1218 -0.17753,0.31068 -0.35506,0.62134 -0.53258,0.93201 1.86406,2.44103 3.72804,4.88196 5.59206,7.32294 2.13035,2.35226 4.26062,4.70443 6.39093,7.05665 2.48541,2.35226 4.97072,4.70443 7.45608,7.05665 0.57697,0.62135 1.15392,1.24268 1.73087,1.86402 0.17753,0.13314 0.35506,0.26629 0.53258,0.39943 -1.28709,1.06518 -2.57412,2.13031 -3.86118,3.19546 -1.28709,1.33147 -2.57413,2.66289 -3.86119,3.99433 -4.92644,4.34947 -9.85268,8.69876 -14.77902,13.04815 -0.13314,0.4882 -0.26629,0.97639 -0.39943,1.46458 0.39944,0.7545 0.79887,1.50897 1.1983,2.26346 0.53259,0 1.06515,0 1.59773,0 0.53259,-0.17753 1.06515,-0.35506 1.59773,-0.53258 7.14556,-6.56859 14.29082,-13.13691 21.43624,-19.70536 0.26629,-0.17753 0.53257,-0.35505 0.79886,-0.53258 1.37585,1.06518 2.75165,2.13031 4.12748,3.19547 2.48541,1.68652 4.97072,3.37299 7.45608,5.05948 3.46182,1.95282 6.9235,3.90557 10.38525,5.85835 2.17474,0.93203 4.34938,1.86402 6.52407,2.79603 1.24271,0.53259 2.48537,1.06516 3.72805,1.59773 0.88764,0.35506 1.77525,0.71011 2.66288,1.06516 0.48821,0.0888 0.97639,0.17752 1.46459,0.26629 z"
         transform="translate(-89.37153,-38.06024)" />
      <path
         style="fill:#dcdcdc;fill-opacity:1;stroke-width:1.934;stroke-linecap:round;stroke-dashoffset:2.2;paint-order:stroke fill markers"
         d="m 259.09883,399.03351 c 0.26629,-0.13315 0.66572,-0.79887 2.08596,-2.19691 1.42023,-1.39803 3.86115,-3.5283 5.6808,-5.05947 1.81966,-1.53117 3.01793,-2.46316 3.79461,-3.0845 0.77668,-0.62135 1.13172,-0.93201 1.57554,-1.04296 0.44383,-0.11095 0.97639,-0.0222 0.99858,-0.37725 0.0222,-0.35506 -0.466,-1.15391 -0.90982,-1.77526 -0.44382,-0.62134 -0.84325,-1.06515 -1.66432,-2.28566 -0.82107,-1.22051 -2.06372,-3.21763 -3.06231,-5.17044 -0.99859,-1.9528 -1.75306,-3.86116 -2.39659,-5.45891 -0.64354,-1.59774 -1.17611,-2.88478 -1.6865,-4.21623 -0.51039,-1.33146 -0.99858,-2.70726 -1.37582,-3.77242 -0.37725,-1.06516 -0.64353,-1.81963 -1.19831,-1.95277 -0.55477,-0.13314 -1.398,0.35504 -3.97217,2.41882 -2.57417,2.06377 -6.87908,5.70298 -9.03158,7.70015 -2.1525,1.99716 -2.1525,2.35221 -1.97497,2.92918 0.17753,0.57696 0.53257,1.37581 0.97639,2.44098 0.44382,1.06517 0.97639,2.39658 1.53116,3.59489 0.55478,1.19831 1.13172,2.26345 1.59773,3.15108 0.46601,0.88764 0.82106,1.59773 1.13173,2.21907 0.31067,0.62135 0.57695,1.15391 0.1997,1.84183 -0.37725,0.68792 -1.39801,1.53115 -3.37301,3.28425 -1.975,1.75309 -4.90412,4.41593 -6.36871,5.99147 -1.46458,1.57555 -1.46458,2.06373 -1.24267,2.59631 0.22191,0.53259 0.66572,1.10954 1.13173,1.42021 0.46601,0.31067 0.95419,0.35505 1.39801,0.24409 0.44382,-0.11095 0.84325,-0.37724 2.2191,-1.55337 1.37584,-1.17613 3.72801,-3.26201 5.30356,-4.66003 1.57555,-1.39803 2.3744,-2.10812 2.92917,-2.52974 0.55477,-0.42163 0.86543,-0.55477 1.1983,-0.62134 0.33286,-0.0666 0.68791,-0.0666 1.02077,0.15534 0.33287,0.22191 0.64353,0.66572 1.04297,1.39802 0.39944,0.73231 0.88762,1.75306 1.22049,2.41878 0.33286,0.66573 0.51038,0.97639 0.66571,1.33145 0.15534,0.35505 0.28848,0.75448 0.55477,0.62134 z"
         id="path29"
         inkscape:path-effect="#path-effect29"
         inkscape:original-d="m 258.96569,399.56608 c 0.39943,-0.66572 0.79886,-1.33144 1.1983,-1.99716 2.44102,-2.13036 4.88195,-4.26062 7.32293,-6.39093 1.19833,-0.93203 2.3966,-1.86402 3.5949,-2.79603 0.35506,-0.31068 0.7101,-0.62134 1.06515,-0.93201 0.53259,0.0888 1.06516,0.17752 1.59774,0.26629 -0.48821,-0.79888 -0.9764,-1.59773 -1.46459,-2.3966 -0.39944,-0.44382 -0.79887,-0.88763 -1.1983,-1.33144 -1.24271,-1.99721 -2.48536,-3.99433 -3.72804,-5.9915 -0.7545,-1.90844 -1.50897,-3.8168 -2.26345,-5.7252 -0.53259,-1.28709 -1.06516,-2.57413 -1.59774,-3.86119 -0.4882,-1.37585 -0.97639,-2.75165 -1.46458,-4.12747 -0.2663,-0.7545 -0.53258,-1.50897 -0.79887,-2.26346 -0.84326,0.48821 -1.68649,0.9764 -2.52974,1.46459 -4.30509,3.63935 -8.61,7.27856 -12.915,10.91784 0,0.35505 0,0.7101 0,1.06515 0.35506,0.79888 0.7101,1.59773 1.06515,2.3966 0.53259,1.33147 1.06516,2.66288 1.59774,3.99433 0.57697,1.06517 1.15391,2.13031 1.73087,3.19546 0.35506,0.71012 0.71011,1.42021 1.06516,2.13031 0.26629,0.53259 0.53257,1.06515 0.79886,1.59773 -1.02079,0.84327 -2.04154,1.6865 -3.06232,2.52974 -2.92923,2.66294 -5.85835,5.32578 -8.78752,7.98866 0,0.48821 0,0.97639 0,1.46459 0.44382,0.57697 0.88763,1.15392 1.33144,1.73088 0.48821,0.0444 0.97639,0.0888 1.46459,0.13314 0.39944,-0.26629 0.79887,-0.53258 1.1983,-0.79887 2.35226,-2.08597 4.70443,-4.17185 7.05665,-6.25778 0.79888,-0.71012 1.59773,-1.4202 2.39659,-2.13031 0.31068,-0.13314 0.62134,-0.26629 0.93201,-0.39943 0.35506,0 0.71011,0 1.06516,0 0.31068,0.44382 0.62134,0.88763 0.93201,1.33144 0.48821,1.0208 0.97639,2.04155 1.46459,3.06232 0.17753,0.31068 0.35505,0.62134 0.53257,0.93201 0.13315,0.39944 0.26629,0.79887 0.39944,1.1983 z"
         transform="translate(-89.37153,-38.06024)" />
      <path
         style="fill:#dcdcdc;fill-opacity:1;stroke-width:1.934;stroke-linecap:round;stroke-dashoffset:2.2;paint-order:stroke fill markers"
         d="m 248.09224,372.38244 c 2.26345,-1.44239 6.56845,-5.17043 9.05382,-7.23417 2.48536,-2.06374 3.15107,-2.46316 3.39516,-2.95137 0.2441,-0.4882 0.0666,-1.06514 -0.33286,-2.24127 -0.39944,-1.17613 -1.02077,-2.95135 -1.55335,-4.88196 -0.53258,-1.93061 -0.97639,-4.0165 -1.37582,-6.05806 -0.39944,-2.04157 -0.75448,-4.0387 -0.99858,-5.72521 -0.2441,-1.6865 -0.37724,-3.0623 -0.4882,-4.2828 -0.11095,-1.2205 -0.19972,-2.28564 -0.22191,-3.15108 -0.0222,-0.86544 0.0222,-1.53115 0.0888,-2.19688 0.0666,-0.66573 0.15534,-1.33144 -2.46322,0.0666 -2.61856,1.39805 -7.94423,4.85974 -10.80684,6.72376 -2.8626,1.86402 -3.26203,2.13031 -3.50613,2.52975 -0.2441,0.39944 -0.33286,0.932 -0.19971,2.44099 0.13315,1.509 0.4882,3.99431 0.99859,6.59065 0.51039,2.59634 1.1761,5.30355 1.79745,7.58921 0.62134,2.28567 1.19829,4.14965 1.28705,5.28138 0.0888,1.13173 -0.31067,1.53116 -0.99859,2.13032 -0.68792,0.59915 -1.66429,1.398 -2.86261,2.39659 -1.19831,0.9986 -2.61849,2.19688 -3.19545,3.08451 -0.57695,0.88763 -0.31067,1.46458 0.0222,1.9084 0.33286,0.44382 0.73229,0.75448 1.17611,0.77667 0.44382,0.0222 0.932,-0.2441 1.50897,-0.66573 0.57696,-0.42163 1.24267,-0.99857 2.17469,-1.77526 0.93203,-0.77668 2.1303,-1.75305 2.81821,-2.33002 0.68792,-0.57696 0.86544,-0.75448 1.10954,-0.39942 0.2441,0.35506 0.55477,1.24267 0.82106,2.10812 0.26629,0.86545 0.48819,1.70867 2.75165,0.26627 z"
         id="path30"
         inkscape:path-effect="#path-effect30"
         inkscape:original-d="m 246.05069,374.66809 c 4.305,-3.72804 8.61,-7.45608 12.915,-11.18412 0.66573,-0.39944 1.33144,-0.79886 1.99716,-1.1983 -0.17753,-0.57697 -0.35505,-1.15391 -0.53258,-1.73087 -0.62135,-1.7753 -1.24268,-3.55052 -1.86402,-5.32578 -0.44382,-2.08596 -0.88762,-4.17185 -1.33144,-6.25778 -0.35506,-1.9972 -0.7101,-3.99433 -1.06515,-5.99149 -0.13315,-1.37585 -0.26629,-2.75165 -0.39944,-4.12748 -0.0888,-1.06517 -0.17753,-2.13031 -0.26629,-3.19546 0.0444,-0.66573 0.0888,-1.33144 0.13315,-1.99716 0.0888,-0.66574 0.17753,-1.33145 0.26629,-1.99717 -5.32588,3.46182 -10.65155,6.92351 -15.97732,10.38526 -0.39944,0.26629 -0.79887,0.53258 -1.1983,0.79886 -0.0888,0.53259 -0.17752,1.06516 -0.26629,1.59774 0.35506,2.48541 0.71011,4.97072 1.06516,7.45608 0.66573,2.70732 1.33144,5.41453 1.99716,8.1218 0.57697,1.86406 1.15392,3.72804 1.73088,5.59206 -0.39944,0.39944 -0.79887,0.79887 -1.1983,1.1983 -0.97641,0.79888 -1.95278,1.59773 -2.92918,2.3966 -1.42023,1.19832 -2.84041,2.3966 -4.26061,3.59489 0.26629,0.57697 0.53257,1.15392 0.79886,1.73088 0.39944,0.31068 0.79887,0.62134 1.1983,0.93201 0.48821,-0.26629 0.97639,-0.53258 1.46459,-0.79887 0.66573,-0.57697 1.33144,-1.15391 1.99716,-1.73087 1.19833,-0.97641 2.3966,-1.95278 3.5949,-2.92918 0.17753,-0.17753 0.35505,-0.35505 0.53258,-0.53257 0.31067,0.88764 0.62134,1.77525 0.93201,2.66288 0.22191,0.84327 0.44381,1.68649 0.66572,2.52974 z"
         transform="translate(-89.37153,-38.06024)" />
      <path
         style="fill:#dcdcdc;fill-opacity:1;stroke-width:1.934;stroke-linecap:round;stroke-dashoffset:2.2;paint-order:stroke fill markers"
         d="m 239.90386,341.22668 c 1.75307,-0.77667 4.94853,-2.90698 7.61144,-4.61568 2.66291,-1.7087 4.79317,-2.99574 6.10243,-3.75022 1.30926,-0.75449 1.79744,-0.97639 2.10811,-1.55336 0.31068,-0.57697 0.44382,-1.50896 0.44382,-3.06233 -1e-5,-1.55337 -0.13315,-3.72802 -0.0666,-5.94711 0.0666,-2.2191 0.33285,-4.48251 0.57695,-6.08025 0.24411,-1.59774 0.46601,-2.52973 -0.84327,-1.93056 -1.30928,0.59917 -4.14964,2.72944 -7.50047,5.34798 -3.35084,2.61853 -7.21195,5.72517 -9.20912,7.61138 -1.99717,1.88622 -2.13031,2.55193 -2.10811,4.21626 0.0222,1.66433 0.19971,4.32717 0.31067,6.05805 0.11095,1.73088 0.15533,2.52973 0.33286,3.21765 0.17753,0.68792 0.48819,1.26487 2.24126,0.48819 z"
         id="path31"
         inkscape:path-effect="#path-effect31"
         inkscape:original-d="m 238.46146,342.58032 c 3.19547,-2.13031 6.39093,-4.26062 9.58639,-6.39093 2.13036,-1.28709 4.26062,-2.57413 6.39093,-3.86119 0.48821,-0.22191 0.97639,-0.44381 1.46459,-0.66572 0.13314,-0.93203 0.26629,-1.86402 0.39943,-2.79603 -0.13315,-2.17473 -0.26629,-4.34938 -0.39943,-6.52407 0.26629,-2.2635 0.53258,-4.52691 0.79886,-6.79036 0.22192,-0.93203 0.44382,-1.86402 0.66573,-2.79603 -2.84047,2.13035 -5.68083,4.26062 -8.52124,6.39093 -3.86126,3.10676 -7.72237,6.2134 -11.58356,9.3201 -0.13314,0.66573 -0.26628,1.33144 -0.39943,1.99716 0.17753,2.66294 0.35505,5.32578 0.53258,7.98866 0.0444,0.79888 0.0888,1.59773 0.13314,2.3966 0.31068,0.57697 0.62134,1.15392 0.93201,1.73088 z"
         transform="translate(-89.37153,-38.06024)" />
      <path
         style="fill:#dcdcdc;fill-opacity:1;stroke-width:1.934;stroke-linecap:round;stroke-dashoffset:2.2;paint-order:stroke fill markers"
         d="m 239.571,326.38109 c 2.21907,-1.64211 6.61283,-5.10386 9.83051,-7.52266 3.21767,-2.41881 5.25918,-3.79461 6.39091,-4.61567 1.13172,-0.82105 1.35363,-1.08734 1.59773,-2.24127 0.2441,-1.15394 0.51038,-3.19545 1.13173,-6.0359 0.62135,-2.84045 1.59773,-6.47965 2.66289,-9.74171 1.06517,-3.26207 2.21906,-6.14681 3.41737,-8.74314 1.19831,-2.59634 2.44097,-4.90413 3.41737,-6.70159 0.9764,-1.79746 1.68649,-3.0845 3.19548,-5.45894 1.50899,-2.37444 3.81678,-5.83612 4.43811,-7.07879 0.62133,-1.24267 -0.44381,-0.2663 -3.15112,1.66432 -2.70731,1.93062 -7.0566,4.81536 -11.87204,8.01086 -4.81544,3.19549 -10.09673,6.70156 -12.91495,8.63216 -2.81823,1.93059 -3.17327,2.28563 -3.55051,3.21766 -0.37725,0.93203 -0.77668,2.44096 -1.42022,5.05951 -0.64354,2.61854 -1.53115,6.3465 -2.24126,9.87486 -0.71011,3.52836 -1.24267,6.8569 -1.70868,10.09677 -0.46601,3.23988 -0.86544,6.3909 -1.08734,8.18836 -0.22191,1.79745 -0.26629,2.24125 -0.31067,2.79603 -0.0444,0.55477 -0.0888,1.22048 -0.0888,1.64211 1e-5,0.42162 0.0444,0.59915 2.26346,-1.04297 z"
         id="path32"
         inkscape:path-effect="#path-effect32"
         inkscape:original-d="m 237.39631,328.20073 c 4.39376,-3.46175 8.78752,-6.9235 13.18129,-10.38526 2.04158,-1.37585 4.08309,-2.75165 6.12463,-4.12747 0.22192,-0.26629 0.44382,-0.53258 0.66573,-0.79887 0.26629,-2.04158 0.53257,-4.08309 0.79886,-6.12463 0.97641,-3.63936 1.95278,-7.27856 2.92918,-10.91784 1.15394,-2.88485 2.30783,-5.76959 3.46175,-8.65438 1.2427,-2.30788 2.48536,-4.61567 3.72804,-6.9235 0.71012,-1.28709 1.4202,-2.57413 2.13031,-3.86119 2.30788,-3.46182 4.61567,-6.9235 6.9235,-10.38525 -1.06517,0.97641 -2.13031,1.95278 -3.19546,2.92917 -4.34947,2.88485 -8.69876,5.76959 -13.04814,8.65438 -5.2815,3.5062 -10.56279,7.01227 -15.84418,10.5184 -0.35506,0.35506 -0.7101,0.7101 -1.06515,1.06516 -0.39944,1.509 -0.79887,3.01793 -1.1983,4.5269 -0.88765,3.72812 -1.77526,7.45608 -2.66289,11.18412 -0.53258,3.32868 -1.06515,6.65722 -1.59773,9.98583 -0.39944,3.15114 -0.79886,6.30216 -1.1983,9.45324 -0.0444,0.44383 -0.0888,0.88763 -0.13314,1.33145 -0.0444,0.66573 -0.0888,1.33144 -0.13315,1.99716 0.0444,0.17753 0.0888,0.35505 0.13315,0.53258 z"
         transform="translate(-89.37153,-38.06024)" />
      <path
         style="fill:#dcdcdc;fill-opacity:1;stroke-width:1.934;stroke-linecap:round;stroke-dashoffset:2.2;paint-order:stroke fill markers"
         d="m 271.79193,270.06104 c -5.45892,3.81681 -16.06609,10.87346 -21.43624,14.40179 -5.37016,3.52832 -5.5033,3.52832 -5.17043,2.70725 0.33287,-0.82108 1.13172,-2.46316 1.9084,-4.12748 0.77668,-1.66432 1.53115,-3.35078 2.26345,-4.85976 0.73231,-1.50899 1.44239,-2.8404 1.95278,-3.75022 0.51039,-0.90983 0.82106,-1.39802 1.08735,-1.81964 0.26629,-0.42163 0.48819,-0.77668 0.59915,-1.06516 0.11095,-0.28848 0.11095,-0.51038 -0.0444,-0.62134 -0.15534,-0.11095 -0.466,-0.11095 -1.08735,0.24411 -0.62135,0.35506 -1.55334,1.06515 -2.35222,1.68649 -0.79887,0.62135 -1.46458,1.15391 -1.90839,1.66431 -0.44382,0.51039 -0.66572,0.99857 -1.28707,1.1761 -0.62135,0.17752 -1.64211,0.0444 -2.30784,-0.33287 -0.66572,-0.37725 -0.97638,-0.99857 -0.95418,-1.48677 0.0222,-0.4882 0.37723,-0.84325 1.04297,-1.37583 0.66573,-0.53259 1.6421,-1.24267 4.23845,-3.32864 2.59636,-2.08596 6.81251,-5.54764 9.34226,-7.70015 2.52975,-2.15251 3.37298,-2.99574 5.08169,-5.12609 1.70872,-2.13034 4.28279,-5.54764 6.96789,-8.5878 2.68511,-3.04015 5.48108,-5.70298 7.76674,-7.81112 2.28567,-2.10813 4.06089,-3.66145 6.41313,-5.54768 2.35225,-1.88623 5.28137,-4.10526 8.74316,-6.41312 3.46179,-2.30786 7.45604,-4.70441 11.983,-7.05665 4.52695,-2.35224 9.58634,-4.66003 14.97874,-6.54625 5.3924,-1.88623 11.11749,-3.35078 15.55567,-4.26061 4.43817,-0.90982 7.58919,-1.26487 11.18412,-1.59773 3.59494,-0.33287 7.63357,-0.64353 10.56277,-0.73229 2.92919,-0.0888 4.74879,0.0444 5.92491,0.15534 1.17612,0.11095 1.70868,0.19971 1.57552,0.48819 -0.13315,0.28849 -0.932,0.77668 -5.90281,4.08315 -4.97081,3.30648 -14.11321,9.431 -18.83983,12.55989 -4.72663,3.1289 -5.03729,3.26204 -5.96932,3.46176 -0.93202,0.19971 -2.48534,0.466 -5.01512,1.24269 -2.52978,0.77669 -6.03584,2.06372 -9.076,3.3286 -3.04015,1.26489 -5.61422,2.50754 -8.78753,4.30501 -3.17331,1.79747 -6.94566,4.14964 -10.5184,6.61284 -3.57274,2.46319 -6.94566,5.03727 -9.49761,7.1454 -2.55195,2.10814 -4.28279,3.75022 -6.05807,5.63645 -1.77527,1.88623 -3.59487,4.0165 -4.74879,5.43671 -1.15392,1.42021 -1.64211,2.1303 -2.04155,2.77384 -0.39944,0.64354 -0.7101,1.22048 -6.16901,5.03728 z"
         id="path33"
         inkscape:path-effect="#path-effect33"
         inkscape:original-d="m 276.94017,266.8212 c -10.60716,7.05665 -21.21433,14.1133 -31.82149,21.16995 -0.13315,0 -0.26629,0 -0.39943,0 0.79888,-1.64215 1.59773,-3.28423 2.39659,-4.92634 0.7545,-1.68653 1.50897,-3.37299 2.26346,-5.05949 0.71011,-1.33147 1.4202,-2.66288 2.13031,-3.99433 0.31067,-0.4882 0.62134,-0.97639 0.93201,-1.46458 0.22191,-0.35506 0.44381,-0.71011 0.66572,-1.06516 0,-0.22191 0,-0.44381 0,-0.66572 -0.31068,0 -0.62134,0 -0.93201,0 -0.93203,0.71012 -1.86402,1.42021 -2.79603,2.13031 -0.66574,0.53259 -1.33145,1.06515 -1.99717,1.59773 -0.22191,0.48821 -0.44381,0.97639 -0.66572,1.46459 -1.02079,-0.13315 -2.04155,-0.26629 -3.06232,-0.39943 -0.31068,-0.62136 -0.62134,-1.24268 -0.93201,-1.86402 0.35506,-0.35506 0.7101,-0.71011 1.06516,-1.06516 0.97641,-0.71012 1.95278,-1.4202 2.92917,-2.13031 4.21632,-3.46182 8.43247,-6.9235 12.64871,-10.38525 0.84326,-0.84327 1.68649,-1.6865 2.52974,-2.52975 2.57418,-3.41744 5.14825,-6.83474 7.72237,-10.25211 2.79609,-2.66294 5.59206,-5.32577 8.38809,-7.98866 1.7753,-1.55338 3.55052,-3.1067 5.32578,-4.66005 2.92923,-2.21911 5.85835,-4.43814 8.78752,-6.65721 3.99441,-2.39665 7.98866,-4.7932 11.98299,-7.1898 5.05958,-2.30788 10.11897,-4.61567 15.17845,-6.9235 5.72532,-1.46462 11.45041,-2.92918 17.17562,-4.39376 3.15114,-0.35506 6.30216,-0.71011 9.45324,-1.06516 4.03879,-0.31067 8.07742,-0.62134 12.11614,-0.93201 1.81967,0.13315 3.63927,0.26629 5.45891,0.39944 0.53259,0.0888 1.06516,0.17752 1.59773,0.26628 -0.79888,0.48821 -1.59773,0.9764 -2.39659,1.46459 -9.14276,6.12476 -18.28516,12.24928 -27.42773,18.37392 -0.31068,0.13314 -0.62134,0.26629 -0.93201,0.39943 -1.55338,0.26629 -3.1067,0.53258 -4.66005,0.79887 -3.50621,1.28708 -7.01227,2.57412 -10.5184,3.86118 -2.57418,1.24271 -5.14825,2.48536 -7.72237,3.72804 -3.7725,2.35226 -7.54485,4.70443 -11.31727,7.05665 -3.37306,2.57417 -6.74598,5.14825 -10.11897,7.72237 -1.73091,1.64215 -3.46175,3.28423 -5.19263,4.92634 -1.81967,2.13035 -3.63927,4.26062 -5.45891,6.39093 -0.48821,0.71011 -0.97639,1.4202 -1.46459,2.13031 -0.31068,0.57697 -0.62134,1.15391 -0.93201,1.73087 z"
         transform="translate(-89.37153,-38.06024)" />
    </g>
    <text
       xml:space="preserve"
       id="text1"
       style="font-size:29.3333px;line-height:1.15;font-family:Arial;-inkscape-font-specification:Arial;white-space:pre;shape-inside:url(#rect1);opacity:1;fill:#c0c0c0;stroke-width:1.934;stroke-linecap:round;stroke-dashoffset:2.2;paint-order:stroke fill markers"
       transform="translate(15.18644,-2.1694915)"><tspan
         x="31.457031"
         y="420.88707"
         id="tspan1">DANHINOU MEDIUM AFRICAIN</tspan></text>
  </g>
</svg>
